EastSyriacMarcus-Regular.ufo
<glyph name="quotesingle" format="2">
  <advance width="150"/>
  <unicode hex="0027"/>
  <note>
quotesingle
</note>
  <outline>
    <contour>
      <point x="75" y="973" type="curve" smooth="yes"/>
      <point x="86" y="973"/>
      <point x="93" y="981"/>
      <point x="95" y="996" type="curve" smooth="yes"/>
      <point x="118" y="1153" type="line"/>
      <point x="32" y="1153" type="line"/>
      <point x="55" y="996" type="line" smooth="yes"/>
      <point x="57" y="981"/>
      <point x="64" y="973"/>
    </contour>
  </outline>
</glyph>
<glyph name="question" format="2">
  <advance width="693"/>
  <unicode hex="003F"/>
  <note>
question
</note>
  <outline>
    <contour>
      <point x="342" y="267" type="curve" smooth="yes"/>
      <point x="364" y="267"/>
      <point x="374" y="300"/>
      <point x="372" y="367" type="curve"/>
      <point x="450" y="400"/>
      <point x="504" y="429"/>
      <point x="534" y="452" type="curve" smooth="yes"/>
      <point x="589" y="494"/>
      <point x="616" y="545"/>
      <point x="616" y="605" type="curve" smooth="yes"/>
      <point x="616" y="757"/>
      <point x="505" y="857"/>
      <point x="352" y="857" type="curve" smooth="yes"/>
      <point x="289" y="857"/>
      <point x="204" y="833"/>
      <point x="97" y="786" type="curve"/>
      <point x="97" y="685" type="line" smooth="yes"/>
      <point x="97" y="658"/>
      <point x="107" y="645"/>
      <point x="127" y="645" type="curve" smooth="yes"/>
      <point x="145" y="645"/>
      <point x="155" y="659"/>
      <point x="158" y="686" type="curve"/>
      <point x="157" y="746" type="line"/>
      <point x="226" y="780"/>
      <point x="290" y="797"/>
      <point x="347" y="797" type="curve" smooth="yes"/>
      <point x="463" y="797"/>
      <point x="557" y="717"/>
      <point x="557" y="604" type="curve" smooth="yes"/>
      <point x="557" y="533"/>
      <point x="475" y="468"/>
      <point x="311" y="407" type="curve"/>
      <point x="311" y="307" type="line" smooth="yes"/>
      <point x="311" y="280"/>
      <point x="321" y="267"/>
    </contour>
    <contour>
      <point x="310" y="-21" type="curve" smooth="yes"/>
      <point x="370" y="-21" type="line" smooth="yes"/>
      <point x="411" y="-21"/>
      <point x="445" y="13"/>
      <point x="445" y="54" type="curve" smooth="yes"/>
      <point x="445" y="94"/>
      <point x="411" y="128"/>
      <point x="370" y="128" type="curve" smooth="yes"/>
      <point x="310" y="128" type="line" smooth="yes"/>
      <point x="269" y="128"/>
      <point x="236" y="94"/>
      <point x="236" y="53" type="curve" smooth="yes"/>
      <point x="236" y="13"/>
      <point x="270" y="-21"/>
    </contour>
  </outline>
</glyph>
<glyph name="at" format="2">
  <advance width="1307"/>
  <unicode hex="0040"/>
  <note>
at
</note>
  <outline>
    <contour>
      <point x="618" y="-130" type="curve" smooth="yes"/>
      <point x="776" y="-130"/>
      <point x="886" y="-110"/>
      <point x="949" y="-69" type="curve" smooth="yes"/>
      <point x="989" y="-43"/>
      <point x="1009" y="-20"/>
      <point x="1009" y="1" type="curve" smooth="yes"/>
      <point x="1009" y="28"/>
      <point x="995" y="41"/>
      <point x="968" y="41" type="curve" smooth="yes"/>
      <point x="959" y="41"/>
      <point x="948" y="36"/>
      <point x="935" y="25" type="curve" smooth="yes"/>
      <point x="878" y="-22"/>
      <point x="777" y="-46"/>
      <point x="630" y="-46" type="curve" smooth="yes"/>
      <point x="517" y="-46"/>
      <point x="421" y="4"/>
      <point x="342" y="105" type="curve" smooth="yes"/>
      <point x="270" y="197"/>
      <point x="234" y="298"/>
      <point x="234" y="408" type="curve" smooth="yes"/>
      <point x="234" y="739" type="line" smooth="yes"/>
      <point x="234" y="847"/>
      <point x="269" y="950"/>
      <point x="340" y="1048" type="curve" smooth="yes"/>
      <point x="418" y="1157"/>
      <point x="512" y="1212"/>
      <point x="621" y="1212" type="curve" smooth="yes"/>
      <point x="698" y="1212"/>
      <point x="773" y="1188"/>
      <point x="844" y="1139" type="curve" smooth="yes"/>
      <point x="921" y="1088"/>
      <point x="959" y="1029"/>
      <point x="959" y="962" type="curve" smooth="yes"/>
      <point x="959" y="839" type="line"/>
      <point x="867" y="858"/>
      <point x="785" y="867"/>
      <point x="713" y="867" type="curve" smooth="yes"/>
      <point x="612" y="867"/>
      <point x="525" y="847"/>
      <point x="452" y="807" type="curve" smooth="yes"/>
      <point x="361" y="758"/>
      <point x="316" y="686"/>
      <point x="316" y="593" type="curve" smooth="yes"/>
      <point x="316" y="516"/>
      <point x="346" y="456"/>
      <point x="407" y="413" type="curve" smooth="yes"/>
      <point x="460" y="374"/>
      <point x="527" y="355"/>
      <point x="606" y="355" type="curve" smooth="yes"/>
      <point x="731" y="355"/>
      <point x="849" y="401"/>
      <point x="959" y="494" type="curve"/>
      <point x="959" y="384" type="line"/>
      <point x="1106" y="384" type="line" smooth="yes"/>
      <point x="1143" y="384"/>
      <point x="1162" y="398"/>
      <point x="1162" y="426" type="curve" smooth="yes"/>
      <point x="1162" y="455"/>
      <point x="1143" y="469"/>
      <point x="1106" y="469" type="curve" smooth="yes"/>
      <point x="1035" y="469" type="line"/>
      <point x="1036" y="962" type="line" smooth="yes"/>
      <point x="1036" y="1111"/>
      <point x="805" y="1297"/>
      <point x="617" y="1297" type="curve" smooth="yes"/>
      <point x="485" y="1297"/>
      <point x="372" y="1235"/>
      <point x="278" y="1110" type="curve" smooth="yes"/>
      <point x="193" y="997"/>
      <point x="150" y="875"/>
      <point x="150" y="744" type="curve" smooth="yes"/>
      <point x="150" y="408" type="line" smooth="yes"/>
      <point x="150" y="277"/>
      <point x="192" y="157"/>
      <point x="277" y="48" type="curve" smooth="yes"/>
      <point x="370" y="-71"/>
      <point x="484" y="-130"/>
    </contour>
    <contour>
      <point x="603" y="430" type="curve" smooth="yes"/>
      <point x="545" y="430"/>
      <point x="497" y="442"/>
      <point x="459" y="467" type="curve" smooth="yes"/>
      <point x="414" y="496"/>
      <point x="392" y="538"/>
      <point x="392" y="593" type="curve" smooth="yes"/>
      <point x="392" y="662"/>
      <point x="432" y="714"/>
      <point x="512" y="750" type="curve" smooth="yes"/>
      <point x="573" y="777"/>
      <point x="643" y="791"/>
      <point x="721" y="791" type="curve" smooth="yes"/>
      <point x="811" y="791"/>
      <point x="890" y="781"/>
      <point x="959" y="762" type="curve"/>
      <point x="959" y="595" type="line"/>
      <point x="845" y="485"/>
      <point x="726" y="430"/>
    </contour>
  </outline>
</glyph>
<glyph name="E" format="2">
  <advance width="1241"/>
  <unicode hex="0045"/>
  <note>
E
</note>
  <outline>
    <contour>
      <point x="206" y="-1" type="curve"/>
      <point x="1091" y="0" type="line"/>
      <point x="1091" y="155" type="line" smooth="yes"/>
      <point x="1091" y="192"/>
      <point x="1077" y="211"/>
      <point x="1049" y="211" type="curve" smooth="yes"/>
      <point x="1020" y="211"/>
      <point x="1005" y="192"/>
      <point x="1006" y="155" type="curve" smooth="yes"/>
      <point x="1007" y="84" type="line"/>
      <point x="361" y="84" type="line"/>
      <point x="361" y="565" type="line"/>
      <point x="662" y="565" type="line"/>
      <point x="662" y="494" type="line" smooth="yes"/>
      <point x="662" y="457"/>
      <point x="676" y="438"/>
      <point x="705" y="438" type="curve" smooth="yes"/>
      <point x="733" y="438"/>
      <point x="747" y="457"/>
      <point x="747" y="494" type="curve" smooth="yes"/>
      <point x="747" y="720" type="line" smooth="yes"/>
      <point x="747" y="757"/>
      <point x="733" y="776"/>
      <point x="705" y="776" type="curve" smooth="yes"/>
      <point x="676" y="776"/>
      <point x="662" y="757"/>
      <point x="662" y="720" type="curve" smooth="yes"/>
      <point x="662" y="649" type="line"/>
      <point x="361" y="649" type="line"/>
      <point x="361" y="1086" type="line"/>
      <point x="963" y="1086" type="line"/>
      <point x="962" y="1015" type="line" smooth="yes"/>
      <point x="961" y="978"/>
      <point x="976" y="959"/>
      <point x="1005" y="959" type="curve" smooth="yes"/>
      <point x="1033" y="959"/>
      <point x="1047" y="978"/>
      <point x="1047" y="1015" type="curve" smooth="yes"/>
      <point x="1047" y="1170" type="line"/>
      <point x="206" y="1171" type="line" smooth="yes"/>
      <point x="169" y="1171"/>
      <point x="150" y="1157"/>
      <point x="150" y="1129" type="curve" smooth="yes"/>
      <point x="150" y="1100"/>
      <point x="169" y="1086"/>
      <point x="206" y="1086" type="curve" smooth="yes"/>
      <point x="277" y="1086" type="line"/>
      <point x="277" y="84" type="line"/>
      <point x="206" y="84" type="line" smooth="yes"/>
      <point x="169" y="84"/>
      <point x="150" y="70"/>
      <point x="150" y="41" type="curve" smooth="yes"/>
      <point x="150" y="29"/>
      <point x="154" y="19"/>
      <point x="163" y="11" type="curve"/>
      <point x="180" y="4"/>
      <point x="195" y="0"/>
    </contour>
  </outline>
</glyph>
<glyph name="L" format="2">
  <advance width="1155"/>
  <unicode hex="004C"/>
  <note>
L
</note>
  <outline>
    <contour>
      <point x="206" y="-1" type="curve" smooth="yes"/>
      <point x="1005" y="0" type="line"/>
      <point x="1005" y="155" type="line" smooth="yes"/>
      <point x="1005" y="192"/>
      <point x="991" y="211"/>
      <point x="963" y="211" type="curve" smooth="yes"/>
      <point x="934" y="211"/>
      <point x="919" y="192"/>
      <point x="920" y="155" type="curve" smooth="yes"/>
      <point x="921" y="84" type="line"/>
      <point x="362" y="84" type="line"/>
      <point x="362" y="1086" type="line"/>
      <point x="433" y="1086" type="line" smooth="yes"/>
      <point x="470" y="1086"/>
      <point x="489" y="1100"/>
      <point x="489" y="1129" type="curve" smooth="yes"/>
      <point x="489" y="1157"/>
      <point x="470" y="1171"/>
      <point x="433" y="1171" type="curve" smooth="yes"/>
      <point x="207" y="1171" type="line" smooth="yes"/>
      <point x="170" y="1171"/>
      <point x="151" y="1157"/>
      <point x="151" y="1129" type="curve" smooth="yes"/>
      <point x="151" y="1100"/>
      <point x="170" y="1086"/>
      <point x="207" y="1086" type="curve" smooth="yes"/>
      <point x="278" y="1086" type="line"/>
      <point x="277" y="84" type="line"/>
      <point x="206" y="84" type="line" smooth="yes"/>
      <point x="169" y="84"/>
      <point x="150" y="70"/>
      <point x="150" y="41" type="curve" smooth="yes"/>
      <point x="150" y="13"/>
      <point x="169" y="-1"/>
    </contour>
  </outline>
</glyph>
<glyph name="N" format="2">
  <advance width="1364"/>
  <unicode hex="004E"/>
  <note>
N
</note>
  <outline>
    <contour>
      <point x="206" y="-1" type="curve" smooth="yes"/>
      <point x="432" y="-1" type="line" smooth="yes"/>
      <point x="469" y="-1"/>
      <point x="488" y="13"/>
      <point x="488" y="41" type="curve" smooth="yes"/>
      <point x="488" y="70"/>
      <point x="469" y="84"/>
      <point x="432" y="84" type="curve" smooth="yes"/>
      <point x="361" y="84" type="line"/>
      <point x="361" y="1047" type="line"/>
      <point x="980" y="0" type="line"/>
      <point x="1088" y="0" type="line"/>
      <point x="1088" y="1086" type="line"/>
      <point x="1159" y="1086" type="line" smooth="yes"/>
      <point x="1196" y="1086"/>
      <point x="1215" y="1100"/>
      <point x="1215" y="1129" type="curve" smooth="yes"/>
      <point x="1215" y="1157"/>
      <point x="1196" y="1171"/>
      <point x="1159" y="1171" type="curve" smooth="yes"/>
      <point x="933" y="1171" type="line" smooth="yes"/>
      <point x="896" y="1171"/>
      <point x="877" y="1157"/>
      <point x="877" y="1129" type="curve" smooth="yes"/>
      <point x="877" y="1100"/>
      <point x="896" y="1086"/>
      <point x="933" y="1086" type="curve" smooth="yes"/>
      <point x="1004" y="1086" type="line"/>
      <point x="1004" y="121" type="line"/>
      <point x="384" y="1170" type="line"/>
      <point x="206" y="1171" type="line" smooth="yes"/>
      <point x="169" y="1171"/>
      <point x="150" y="1157"/>
      <point x="150" y="1129" type="curve" smooth="yes"/>
      <point x="150" y="1100"/>
      <point x="169" y="1086"/>
      <point x="206" y="1086" type="curve" smooth="yes"/>
      <point x="277" y="1086" type="line"/>
      <point x="277" y="84" type="line"/>
      <point x="206" y="84" type="line" smooth="yes"/>
      <point x="169" y="84"/>
      <point x="150" y="70"/>
      <point x="150" y="41" type="curve" smooth="yes"/>
      <point x="150" y="13"/>
      <point x="169" y="-1"/>
    </contour>
  </outline>
</glyph>
<glyph name="V" format="2">
  <advance width="1506"/>
  <unicode hex="0056"/>
  <note>
V
</note>
  <outline>
    <contour>
      <point x="698" y="0" type="line"/>
      <point x="815" y="0" type="line"/>
      <point x="1231" y="1086" type="line"/>
      <point x="1302" y="1086" type="line" smooth="yes"/>
      <point x="1339" y="1086"/>
      <point x="1358" y="1100"/>
      <point x="1358" y="1129" type="curve" smooth="yes"/>
      <point x="1358" y="1157"/>
      <point x="1339" y="1171"/>
      <point x="1302" y="1171" type="curve" smooth="yes"/>
      <point x="1076" y="1171" type="line" smooth="yes"/>
      <point x="1039" y="1171"/>
      <point x="1020" y="1157"/>
      <point x="1020" y="1129" type="curve" smooth="yes"/>
      <point x="1020" y="1100"/>
      <point x="1039" y="1086"/>
      <point x="1076" y="1086" type="curve" smooth="yes"/>
      <point x="1147" y="1086" type="line"/>
      <point x="758" y="84" type="line"/>
      <point x="752" y="84" type="line"/>
      <point x="362" y="1086" type="line"/>
      <point x="433" y="1086" type="line" smooth="yes"/>
      <point x="470" y="1086"/>
      <point x="489" y="1100"/>
      <point x="489" y="1129" type="curve" smooth="yes"/>
      <point x="489" y="1157"/>
      <point x="470" y="1171"/>
      <point x="433" y="1171" type="curve" smooth="yes"/>
      <point x="207" y="1171" type="line" smooth="yes"/>
      <point x="170" y="1171"/>
      <point x="151" y="1157"/>
      <point x="151" y="1129" type="curve" smooth="yes"/>
      <point x="151" y="1100"/>
      <point x="170" y="1086"/>
      <point x="207" y="1086" type="curve" smooth="yes"/>
      <point x="275" y="1086" type="line"/>
    </contour>
  </outline>
</glyph>
<glyph name="W" format="2">
  <advance width="1963"/>
  <unicode hex="0057"/>
  <note>
W
</note>
  <outline>
    <contour>
      <point x="658" y="0" type="line"/>
      <point x="775" y="0" type="line"/>
      <point x="984" y="651" type="line"/>
      <point x="1198" y="0" type="line"/>
      <point x="1315" y="0" type="line"/>
      <point x="1691" y="1086" type="line"/>
      <point x="1762" y="1086" type="line" smooth="yes"/>
      <point x="1799" y="1086"/>
      <point x="1818" y="1100"/>
      <point x="1818" y="1129" type="curve" smooth="yes"/>
      <point x="1818" y="1157"/>
      <point x="1799" y="1171"/>
      <point x="1762" y="1171" type="curve" smooth="yes"/>
      <point x="1536" y="1171" type="line" smooth="yes"/>
      <point x="1499" y="1171"/>
      <point x="1480" y="1157"/>
      <point x="1480" y="1129" type="curve" smooth="yes"/>
      <point x="1480" y="1100"/>
      <point x="1499" y="1086"/>
      <point x="1536" y="1086" type="curve" smooth="yes"/>
      <point x="1607" y="1086" type="line"/>
      <point x="1258" y="84" type="line"/>
      <point x="1242" y="84" type="line"/>
      <point x="1028" y="762" type="line"/>
      <point x="941" y="762" type="line"/>
      <point x="718" y="84" type="line"/>
      <point x="712" y="84" type="line"/>
      <point x="362" y="1086" type="line"/>
      <point x="433" y="1086" type="line" smooth="yes"/>
      <point x="470" y="1086"/>
      <point x="489" y="1100"/>
      <point x="489" y="1129" type="curve" smooth="yes"/>
      <point x="489" y="1157"/>
      <point x="470" y="1171"/>
      <point x="433" y="1171" type="curve" smooth="yes"/>
      <point x="207" y="1171" type="line" smooth="yes"/>
      <point x="170" y="1171"/>
      <point x="151" y="1157"/>
      <point x="151" y="1129" type="curve" smooth="yes"/>
      <point x="151" y="1100"/>
      <point x="170" y="1086"/>
      <point x="207" y="1086" type="curve" smooth="yes"/>
      <point x="275" y="1086" type="line"/>
    </contour>
  </outline>
</glyph>
<glyph name="p" format="2">
  <advance width="1229"/>
  <unicode hex="0070"/>
  <note>
p
</note>
  <outline>
    <contour>
      <point x="203" y="-486" type="curve" smooth="yes"/>
      <point x="428" y="-486" type="line" smooth="yes"/>
      <point x="465" y="-486"/>
      <point x="484" y="-472"/>
      <point x="484" y="-444" type="curve" smooth="yes"/>
      <point x="484" y="-419"/>
      <point x="467" y="-405"/>
      <point x="434" y="-401" type="curve"/>
      <point x="357" y="-402" type="line"/>
      <point x="358" y="145" type="line"/>
      <point x="444" y="27"/>
      <point x="559" y="-32"/>
      <point x="704" y="-32" type="curve" smooth="yes"/>
      <point x="939" y="-32"/>
      <point x="1127" y="154"/>
      <point x="1127" y="387" type="curve" smooth="yes"/>
      <point x="1127" y="622"/>
      <point x="939" y="807"/>
      <point x="704" y="807" type="curve" smooth="yes"/>
      <point x="559" y="807"/>
      <point x="443" y="748"/>
      <point x="357" y="629" type="curve"/>
      <point x="357" y="762" type="line"/>
      <point x="202" y="762" type="line" smooth="yes"/>
      <point x="165" y="762"/>
      <point x="146" y="748"/>
      <point x="146" y="720" type="curve" smooth="yes"/>
      <point x="146" y="691"/>
      <point x="165" y="677"/>
      <point x="202" y="677" type="curve" smooth="yes"/>
      <point x="273" y="677" type="line"/>
      <point x="273" y="-402" type="line"/>
      <point x="196" y="-401" type="line"/>
      <point x="163" y="-405"/>
      <point x="146" y="-419"/>
      <point x="146" y="-444" type="curve" smooth="yes"/>
      <point x="146" y="-472"/>
      <point x="165" y="-486"/>
    </contour>
    <contour>
      <point x="703" y="44" type="curve" smooth="yes"/>
      <point x="512" y="44"/>
      <point x="356" y="196"/>
      <point x="356" y="387" type="curve" smooth="yes"/>
      <point x="356" y="579"/>
      <point x="511" y="730"/>
      <point x="703" y="730" type="curve" smooth="yes"/>
      <point x="896" y="730"/>
      <point x="1051" y="579"/>
      <point x="1051" y="387" type="curve" smooth="yes"/>
      <point x="1051" y="195"/>
      <point x="895" y="44"/>
    </contour>
  </outline>
</glyph>
<glyph name="s" format="2">
  <advance width="1034"/>
  <unicode hex="0073"/>
  <note>
s
</note>
  <outline>
    <contour>
      <point x="520" y="-32" type="curve" smooth="yes"/>
      <point x="611" y="-32"/>
      <point x="691" y="-14"/>
      <point x="759" y="22" type="curve" smooth="yes"/>
      <point x="844" y="67"/>
      <point x="886" y="131"/>
      <point x="886" y="215" type="curve" smooth="yes"/>
      <point x="886" y="258"/>
      <point x="872" y="299"/>
      <point x="843" y="336" type="curve" smooth="yes"/>
      <point x="804" y="387"/>
      <point x="733" y="422"/>
      <point x="630" y="442" type="curve" smooth="yes"/>
      <point x="384" y="482" type="line"/>
      <point x="305" y="501"/>
      <point x="266" y="538"/>
      <point x="266" y="591" type="curve" smooth="yes"/>
      <point x="266" y="639"/>
      <point x="298" y="676"/>
      <point x="361" y="701" type="curve" smooth="yes"/>
      <point x="408" y="720"/>
      <point x="460" y="729"/>
      <point x="516" y="729" type="curve" smooth="yes"/>
      <point x="599" y="729"/>
      <point x="664" y="712"/>
      <point x="712" y="679" type="curve" smooth="yes"/>
      <point x="739" y="660"/>
      <point x="758" y="631"/>
      <point x="768" y="592" type="curve" smooth="yes"/>
      <point x="775" y="562"/>
      <point x="788" y="547"/>
      <point x="806" y="547" type="curve" smooth="yes"/>
      <point x="832" y="547"/>
      <point x="845" y="564"/>
      <point x="845" y="598" type="curve" smooth="yes"/>
      <point x="845" y="728" type="line" smooth="yes"/>
      <point x="845" y="762"/>
      <point x="832" y="779"/>
      <point x="806" y="779" type="curve" smooth="yes"/>
      <point x="781" y="779"/>
      <point x="768" y="762"/>
      <point x="768" y="729" type="curve"/>
      <point x="703" y="780"/>
      <point x="618" y="806"/>
      <point x="513" y="806" type="curve" smooth="yes"/>
      <point x="434" y="806"/>
      <point x="364" y="791"/>
      <point x="303" y="760" type="curve" smooth="yes"/>
      <point x="227" y="721"/>
      <point x="189" y="665"/>
      <point x="189" y="594" type="curve" smooth="yes"/>
      <point x="189" y="505"/>
      <point x="243" y="446"/>
      <point x="350" y="415" type="curve"/>
      <point x="649" y="361" type="line"/>
      <point x="756" y="336"/>
      <point x="810" y="288"/>
      <point x="810" y="215" type="curve" smooth="yes"/>
      <point x="810" y="155"/>
      <point x="774" y="109"/>
      <point x="702" y="78" type="curve" smooth="yes"/>
      <point x="647" y="55"/>
      <point x="586" y="43"/>
      <point x="517" y="43" type="curve" smooth="yes"/>
      <point x="385" y="43"/>
      <point x="295" y="77"/>
      <point x="247" y="144" type="curve" smooth="yes"/>
      <point x="243" y="149"/>
      <point x="236" y="172"/>
      <point x="227" y="212" type="curve" smooth="yes"/>
      <point x="220" y="241"/>
      <point x="207" y="255"/>
      <point x="188" y="255" type="curve" smooth="yes"/>
      <point x="163" y="255"/>
      <point x="150" y="238"/>
      <point x="150" y="204" type="curve" smooth="yes"/>
      <point x="150" y="48" type="line" smooth="yes"/>
      <point x="150" y="14"/>
      <point x="163" y="-3"/>
      <point x="188" y="-3" type="curve" smooth="yes"/>
      <point x="213" y="-3"/>
      <point x="226" y="18"/>
      <point x="226" y="59" type="curve"/>
      <point x="302" y="-2"/>
      <point x="400" y="-32"/>
    </contour>
  </outline>
</glyph>
<glyph name="v" format="2">
  <advance width="1340"/>
  <unicode hex="0076"/>
  <note>
v
</note>
  <outline>
    <contour>
      <point x="602" y="0" type="line"/>
      <point x="744" y="0" type="line"/>
      <point x="1065" y="677" type="line"/>
      <point x="1141" y="676" type="line"/>
      <point x="1175" y="680"/>
      <point x="1192" y="695"/>
      <point x="1192" y="720" type="curve" smooth="yes"/>
      <point x="1192" y="748"/>
      <point x="1174" y="762"/>
      <point x="1139" y="762" type="curve" smooth="yes"/>
      <point x="900" y="762" type="line" smooth="yes"/>
      <point x="865" y="762"/>
      <point x="847" y="748"/>
      <point x="847" y="720" type="curve" smooth="yes"/>
      <point x="847" y="695"/>
      <point x="864" y="680"/>
      <point x="898" y="676" type="curve"/>
      <point x="974" y="677" type="line"/>
      <point x="692" y="84" type="line"/>
      <point x="655" y="84" type="line"/>
      <point x="367" y="677" type="line"/>
      <point x="443" y="676" type="line"/>
      <point x="477" y="680"/>
      <point x="494" y="695"/>
      <point x="494" y="720" type="curve" smooth="yes"/>
      <point x="494" y="748"/>
      <point x="476" y="762"/>
      <point x="441" y="762" type="curve" smooth="yes"/>
      <point x="203" y="762" type="line" smooth="yes"/>
      <point x="168" y="762"/>
      <point x="150" y="748"/>
      <point x="150" y="720" type="curve" smooth="yes"/>
      <point x="150" y="695"/>
      <point x="167" y="680"/>
      <point x="201" y="676" type="curve"/>
      <point x="277" y="677" type="line"/>
    </contour>
    <contour>
      <point x="443" y="676" type="curve"/>
      <point x="367" y="677" type="line"/>
      <point x="481" y="750" type="line"/>
      <point x="490" y="742"/>
      <point x="494" y="732"/>
      <point x="494" y="720" type="curve" smooth="yes"/>
      <point x="494" y="695"/>
      <point x="477" y="680"/>
    </contour>
    <contour>
      <point x="1141" y="676" type="curve"/>
      <point x="1065" y="677" type="line"/>
      <point x="1179" y="750" type="line"/>
      <point x="1188" y="742"/>
      <point x="1192" y="732"/>
      <point x="1192" y="720" type="curve" smooth="yes"/>
      <point x="1192" y="695"/>
      <point x="1175" y="680"/>
    </contour>
  </outline>
</glyph>
<glyph name="x" format="2">
  <advance width="1346"/>
  <unicode hex="0078"/>
  <note>
x
</note>
  <outline>
    <contour>
      <point x="202" y="0" type="curve" smooth="yes"/>
      <point x="466" y="0" type="line" smooth="yes"/>
      <point x="501" y="0"/>
      <point x="519" y="14"/>
      <point x="519" y="42" type="curve" smooth="yes"/>
      <point x="519" y="67"/>
      <point x="502" y="82"/>
      <point x="468" y="86" type="curve"/>
      <point x="392" y="85" type="line"/>
      <point x="677" y="338" type="line"/>
      <point x="952" y="85" type="line"/>
      <point x="877" y="86" type="line"/>
      <point x="843" y="82"/>
      <point x="826" y="67"/>
      <point x="826" y="42" type="curve" smooth="yes"/>
      <point x="826" y="14"/>
      <point x="844" y="0"/>
      <point x="879" y="0" type="curve" smooth="yes"/>
      <point x="1143" y="0" type="line" smooth="yes"/>
      <point x="1178" y="0"/>
      <point x="1196" y="14"/>
      <point x="1196" y="42" type="curve" smooth="yes"/>
      <point x="1196" y="67"/>
      <point x="1179" y="82"/>
      <point x="1145" y="86" type="curve"/>
      <point x="1069" y="85" type="line"/>
      <point x="734" y="394" type="line"/>
      <point x="1027" y="677" type="line"/>
      <point x="1103" y="676" type="line"/>
      <point x="1137" y="680"/>
      <point x="1154" y="695"/>
      <point x="1154" y="720" type="curve" smooth="yes"/>
      <point x="1154" y="748"/>
      <point x="1136" y="762"/>
      <point x="1101" y="762" type="curve" smooth="yes"/>
      <point x="837" y="762" type="line" smooth="yes"/>
      <point x="802" y="762"/>
      <point x="784" y="748"/>
      <point x="784" y="720" type="curve" smooth="yes"/>
      <point x="784" y="695"/>
      <point x="801" y="680"/>
      <point x="836" y="676" type="curve" smooth="yes"/>
      <point x="829" y="677"/>
      <point x="855" y="677"/>
      <point x="912" y="677" type="curve"/>
      <point x="677" y="449" type="line"/>
      <point x="434" y="677" type="line"/>
      <point x="510" y="676" type="line"/>
      <point x="544" y="680"/>
      <point x="561" y="695"/>
      <point x="561" y="720" type="curve" smooth="yes"/>
      <point x="561" y="748"/>
      <point x="543" y="762"/>
      <point x="508" y="762" type="curve" smooth="yes"/>
      <point x="244" y="762" type="line" smooth="yes"/>
      <point x="209" y="762"/>
      <point x="191" y="748"/>
      <point x="191" y="720" type="curve" smooth="yes"/>
      <point x="191" y="695"/>
      <point x="208" y="680"/>
      <point x="242" y="676" type="curve"/>
      <point x="318" y="677" type="line"/>
      <point x="620" y="394" type="line"/>
      <point x="275" y="85" type="line"/>
      <point x="200" y="86" type="line"/>
      <point x="166" y="82"/>
      <point x="149" y="67"/>
      <point x="149" y="42" type="curve" smooth="yes"/>
      <point x="149" y="14"/>
      <point x="167" y="0"/>
    </contour>
    <contour>
      <point x="506" y="12" type="curve"/>
      <point x="392" y="85" type="line"/>
      <point x="468" y="86" type="line"/>
      <point x="502" y="82"/>
      <point x="519" y="67"/>
      <point x="519" y="42" type="curve" smooth="yes"/>
      <point x="519" y="30"/>
      <point x="515" y="20"/>
    </contour>
    <contour>
      <point x="1183" y="12" type="curve"/>
      <point x="1069" y="85" type="line"/>
      <point x="1145" y="86" type="line"/>
      <point x="1179" y="82"/>
      <point x="1196" y="67"/>
      <point x="1196" y="42" type="curve" smooth="yes"/>
      <point x="1196" y="30"/>
      <point x="1192" y="20"/>
    </contour>
    <contour>
      <point x="510" y="676" type="curve"/>
      <point x="434" y="677" type="line"/>
      <point x="548" y="750" type="line"/>
      <point x="557" y="742"/>
      <point x="561" y="732"/>
      <point x="561" y="720" type="curve" smooth="yes"/>
      <point x="561" y="695"/>
      <point x="544" y="680"/>
    </contour>
    <contour>
      <point x="1103" y="676" type="curve"/>
      <point x="1027" y="677" type="line"/>
      <point x="1141" y="750" type="line"/>
      <point x="1150" y="742"/>
      <point x="1154" y="732"/>
      <point x="1154" y="720" type="curve" smooth="yes"/>
      <point x="1154" y="695"/>
      <point x="1137" y="680"/>
    </contour>
  </outline>
</glyph>
<glyph name="braceright" format="2">
  <advance width="769"/>
  <unicode hex="007D"/>
  <note>
braceright
</note>
  <outline>
    <contour>
      <point x="180" y="-85" type="curve" smooth="yes"/>
      <point x="185" y="-85"/>
      <point x="199" y="-76"/>
      <point x="224" y="-58" type="curve" smooth="yes"/>
      <point x="275" y="-20"/>
      <point x="319" y="23"/>
      <point x="355" y="71" type="curve" smooth="yes"/>
      <point x="398" y="130"/>
      <point x="428" y="184"/>
      <point x="443" y="232" type="curve"/>
      <point x="519" y="217" type="line"/>
      <point x="530" y="217"/>
      <point x="535" y="221"/>
      <point x="535" y="228" type="curve"/>
      <point x="529" y="243" type="line"/>
      <point x="466" y="330" type="line" smooth="yes"/>
      <point x="460" y="338"/>
      <point x="457" y="344"/>
      <point x="457" y="349" type="curve"/>
      <point x="459" y="357"/>
      <point x="462" y="361"/>
      <point x="467" y="361" type="curve" smooth="yes"/>
      <point x="473" y="361"/>
      <point x="481" y="357"/>
      <point x="491" y="348" type="curve" smooth="yes"/>
      <point x="564" y="285" type="line" smooth="yes"/>
      <point x="567" y="282"/>
      <point x="571" y="279"/>
      <point x="576" y="276" type="curve"/>
      <point x="585" y="273" type="line"/>
      <point x="593" y="275"/>
      <point x="597" y="284"/>
      <point x="597" y="300" type="curve" smooth="yes"/>
      <point x="597" y="357" type="line"/>
      <point x="617" y="361"/>
      <point x="663" y="393"/>
      <point x="663" y="410" type="curve" smooth="yes"/>
      <point x="663" y="428"/>
      <point x="641" y="447"/>
      <point x="597" y="467" type="curve"/>
      <point x="597" y="531" type="line" smooth="yes"/>
      <point x="597" y="543"/>
      <point x="593" y="549"/>
      <point x="585" y="549" type="curve"/>
      <point x="567" y="542" type="line"/>
      <point x="487" y="471" type="line" smooth="yes"/>
      <point x="481" y="466"/>
      <point x="475" y="464"/>
      <point x="469" y="464" type="curve" smooth="yes"/>
      <point x="466" y="464"/>
      <point x="462" y="467"/>
      <point x="458" y="474" type="curve"/>
      <point x="463" y="488" type="line"/>
      <point x="525" y="576" type="line" smooth="yes"/>
      <point x="530" y="583"/>
      <point x="532" y="589"/>
      <point x="532" y="596" type="curve" smooth="yes"/>
      <point x="532" y="602"/>
      <point x="525" y="605"/>
      <point x="511" y="605" type="curve"/>
      <point x="439" y="595" type="line"/>
      <point x="404" y="690"/>
      <point x="342" y="777"/>
      <point x="251" y="856" type="curve" smooth="yes"/>
      <point x="210" y="892"/>
      <point x="186" y="910"/>
      <point x="179" y="910" type="curve" smooth="yes"/>
      <point x="171" y="910"/>
      <point x="167" y="907"/>
      <point x="167" y="900" type="curve"/>
      <point x="171" y="891" type="line"/>
      <point x="194" y="864" type="line"/>
      <point x="231" y="820" type="line" smooth="yes"/>
      <point x="277" y="767"/>
      <point x="312" y="701"/>
      <point x="335" y="622" type="curve" smooth="yes"/>
      <point x="338" y="611"/>
      <point x="340" y="602"/>
      <point x="340" y="595" type="curve"/>
      <point x="290" y="596" type="line" smooth="yes"/>
      <point x="279" y="597"/>
      <point x="273" y="594"/>
      <point x="273" y="589" type="curve"/>
      <point x="276" y="578" type="line"/>
      <point x="284" y="567" type="line"/>
      <point x="355" y="488" type="line"/>
      <point x="358" y="479" type="line"/>
      <point x="358" y="471"/>
      <point x="354" y="467"/>
      <point x="347" y="467" type="curve" smooth="yes"/>
      <point x="341" y="468" type="line"/>
      <point x="334" y="471" type="line"/>
      <point x="251" y="533" type="line"/>
      <point x="239" y="540" type="line"/>
      <point x="231" y="542" type="line"/>
      <point x="224" y="542"/>
      <point x="221" y="537"/>
      <point x="221" y="528" type="curve" smooth="yes"/>
      <point x="221" y="467" type="line"/>
      <point x="198" y="459" type="line"/>
      <point x="180" y="447" type="line" smooth="yes"/>
      <point x="163" y="433"/>
      <point x="155" y="421"/>
      <point x="155" y="410" type="curve" smooth="yes"/>
      <point x="157" y="387"/>
      <point x="172" y="373"/>
      <point x="200" y="366" type="curve"/>
      <point x="221" y="357" type="line"/>
      <point x="221" y="297" type="line"/>
      <point x="223" y="283"/>
      <point x="226" y="276"/>
      <point x="230" y="276" type="curve"/>
      <point x="245" y="285" type="line"/>
      <point x="331" y="349" type="line" smooth="yes"/>
      <point x="335" y="352"/>
      <point x="341" y="354"/>
      <point x="349" y="354" type="curve" smooth="yes"/>
      <point x="356" y="354"/>
      <point x="359" y="351"/>
      <point x="359" y="345" type="curve"/>
      <point x="358" y="341"/>
      <point x="354" y="334"/>
      <point x="347" y="325" type="curve" smooth="yes"/>
      <point x="276" y="246" type="line"/>
      <point x="273" y="238" type="line"/>
      <point x="273" y="232" type="line"/>
      <point x="278" y="227"/>
      <point x="285" y="225"/>
      <point x="294" y="225" type="curve"/>
      <point x="344" y="232" type="line"/>
      <point x="344" y="193"/>
      <point x="307" y="113"/>
      <point x="278" y="68" type="curve" smooth="yes"/>
      <point x="234" y="2" type="line"/>
      <point x="182" y="-57" type="line"/>
      <point x="170" y="-76" type="line"/>
      <point x="170" y="-82"/>
      <point x="173" y="-85"/>
    </contour>
    <contour>
      <point x="343" y="94" type="curve"/>
      <point x="343" y="148" type="line"/>
      <point x="362" y="194" type="line"/>
      <point x="382" y="262" type="line"/>
      <point x="314" y="250" type="line"/>
      <point x="311" y="253" type="line"/>
      <point x="373" y="318" type="line"/>
      <point x="373" y="288" type="line"/>
      <point x="397" y="288" type="line"/>
      <point x="398" y="253" type="line"/>
      <point x="419" y="288" type="line"/>
      <point x="443" y="288" type="line"/>
      <point x="445" y="321" type="line"/>
      <point x="494" y="244" type="line"/>
      <point x="424" y="259" type="line"/>
      <point x="424" y="248"/>
      <point x="419" y="231"/>
      <point x="410" y="210" type="curve" smooth="yes"/>
      <point x="387" y="155"/>
      <point x="364" y="116"/>
    </contour>
    <contour>
      <point x="248" y="318" type="line"/>
      <point x="248" y="376" type="line"/>
      <point x="227" y="381" type="line"/>
      <point x="209" y="390" type="line" smooth="yes"/>
      <point x="201" y="394"/>
      <point x="194" y="399"/>
      <point x="188" y="405" type="curve" smooth="yes"/>
      <point x="182" y="411" type="line"/>
      <point x="182" y="420"/>
      <point x="191" y="428"/>
      <point x="209" y="436" type="curve" smooth="yes"/>
      <point x="225" y="443"/>
      <point x="238" y="447"/>
      <point x="248" y="447" type="curve"/>
      <point x="248" y="507" type="line"/>
      <point x="323" y="447" type="line"/>
      <point x="278" y="447" type="line"/>
      <point x="278" y="425" type="line"/>
      <point x="264" y="423"/>
      <point x="254" y="418"/>
      <point x="248" y="411" type="curve"/>
      <point x="264" y="404" type="line"/>
      <point x="278" y="401" type="line"/>
      <point x="278" y="379" type="line"/>
      <point x="328" y="378" type="line"/>
    </contour>
    <contour>
      <point x="407" y="361" type="curve" smooth="yes"/>
      <point x="371" y="361"/>
      <point x="353" y="379"/>
      <point x="353" y="414" type="curve" smooth="yes"/>
      <point x="353" y="449"/>
      <point x="371" y="467"/>
      <point x="407" y="467" type="curve"/>
      <point x="443" y="462"/>
      <point x="461" y="445"/>
      <point x="461" y="414" type="curve" smooth="yes"/>
      <point x="461" y="406"/>
      <point x="460" y="400"/>
      <point x="457" y="395" type="curve"/>
      <point x="454" y="386"/>
      <point x="450" y="379"/>
      <point x="445" y="376" type="curve"/>
      <point x="435" y="366"/>
      <point x="422" y="361"/>
    </contour>
    <contour>
      <point x="571" y="318" type="line"/>
      <point x="491" y="378" type="line"/>
      <point x="540" y="378" type="line"/>
      <point x="540" y="399" type="line"/>
      <point x="551" y="402"/>
      <point x="561" y="407"/>
      <point x="571" y="413" type="curve"/>
      <point x="560" y="420"/>
      <point x="550" y="423"/>
      <point x="540" y="423" type="curve"/>
      <point x="540" y="446" type="line"/>
      <point x="491" y="447" type="line"/>
      <point x="571" y="509" type="line"/>
      <point x="571" y="447" type="line"/>
      <point x="581" y="446"/>
      <point x="594" y="442"/>
      <point x="609" y="434" type="curve" smooth="yes"/>
      <point x="628" y="426"/>
      <point x="637" y="419"/>
      <point x="637" y="413" type="curve" smooth="yes"/>
      <point x="636" y="405"/>
      <point x="627" y="397"/>
      <point x="610" y="390" type="curve" smooth="yes"/>
      <point x="586" y="379" type="line"/>
      <point x="571" y="376" type="line"/>
    </contour>
    <contour>
      <point x="443" y="504" type="line"/>
      <point x="443" y="536" type="line"/>
      <point x="419" y="536" type="line"/>
      <point x="397" y="570" type="line"/>
      <point x="397" y="536" type="line"/>
      <point x="374" y="536" type="line"/>
      <point x="374" y="507" type="line"/>
      <point x="314" y="573" type="line"/>
      <point x="383" y="561" type="line"/>
      <point x="362" y="631" type="line"/>
      <point x="344" y="677" type="line"/>
      <point x="344" y="731" type="line"/>
      <point x="361" y="713"/>
      <point x="378" y="686"/>
      <point x="394" y="650" type="curve" smooth="yes"/>
      <point x="418" y="596" type="line" smooth="yes"/>
      <point x="423" y="585"/>
      <point x="425" y="574"/>
      <point x="425" y="564" type="curve"/>
      <point x="496" y="581" type="line"/>
    </contour>
  </outline>
</glyph>
<glyph name="asciitilde" format="2">
  <advance width="1156"/>
  <unicode hex="007E"/>
  <note>
asciitilde
</note>
  <outline>
    <contour>
      <point x="759" y="653" type="curve" smooth="yes"/>
      <point x="835" y="653"/>
      <point x="1006" y="781"/>
      <point x="1006" y="849" type="curve" smooth="yes"/>
      <point x="1006" y="876"/>
      <point x="993" y="889"/>
      <point x="966" y="889" type="curve" smooth="yes"/>
      <point x="953" y="889"/>
      <point x="924" y="864"/>
      <point x="880" y="814" type="curve" smooth="yes"/>
      <point x="836" y="763"/>
      <point x="794" y="738"/>
      <point x="753" y="738" type="curve" smooth="yes"/>
      <point x="725" y="738"/>
      <point x="672" y="774"/>
      <point x="594" y="847" type="curve" smooth="yes"/>
      <point x="516" y="920"/>
      <point x="450" y="956"/>
      <point x="395" y="956" type="curve" smooth="yes"/>
      <point x="326" y="956"/>
      <point x="253" y="908"/>
      <point x="176" y="811" type="curve" smooth="yes"/>
      <point x="159" y="789"/>
      <point x="150" y="773"/>
      <point x="150" y="762" type="curve" smooth="yes"/>
      <point x="150" y="735"/>
      <point x="163" y="722"/>
      <point x="190" y="722" type="curve" smooth="yes"/>
      <point x="202" y="722"/>
      <point x="231" y="747"/>
      <point x="276" y="797" type="curve" smooth="yes"/>
      <point x="321" y="847"/>
      <point x="361" y="872"/>
      <point x="397" y="872" type="curve" smooth="yes"/>
      <point x="428" y="872"/>
      <point x="482" y="836"/>
      <point x="561" y="763" type="curve" smooth="yes"/>
      <point x="639" y="690"/>
      <point x="705" y="653"/>
    </contour>
  </outline>
</glyph>
<glyph name="cent" format="2">
  <advance width="1038"/>
  <unicode hex="00A2"/>
  <note>
cent
</note>
  <outline>
    <contour>
      <point x="535" y="-2" type="curve" smooth="yes"/>
      <point x="563" y="-2"/>
      <point x="577" y="17"/>
      <point x="577" y="54" type="curve" smooth="yes"/>
      <point x="577" y="261" type="line"/>
      <point x="627" y="264"/>
      <point x="687" y="278"/>
      <point x="756" y="303" type="curve" smooth="yes"/>
      <point x="843" y="334"/>
      <point x="886" y="368"/>
      <point x="886" y="404" type="curve" smooth="yes"/>
      <point x="886" y="431"/>
      <point x="873" y="445"/>
      <point x="846" y="445" type="curve" smooth="yes"/>
      <point x="853" y="445"/>
      <point x="820" y="428"/>
      <point x="749" y="393" type="curve" smooth="yes"/>
      <point x="677" y="358"/>
      <point x="610" y="341"/>
      <point x="548" y="341" type="curve" smooth="yes"/>
      <point x="369" y="341"/>
      <point x="234" y="468"/>
      <point x="234" y="645" type="curve" smooth="yes"/>
      <point x="234" y="736"/>
      <point x="265" y="811"/>
      <point x="328" y="868" type="curve" smooth="yes"/>
      <point x="388" y="923"/>
      <point x="464" y="950"/>
      <point x="557" y="950" type="curve" smooth="yes"/>
      <point x="630" y="950"/>
      <point x="686" y="936"/>
      <point x="727" y="907" type="curve" smooth="yes"/>
      <point x="755" y="886"/>
      <point x="777" y="853"/>
      <point x="793" y="808" type="curve" smooth="yes"/>
      <point x="806" y="773"/>
      <point x="820" y="755"/>
      <point x="837" y="755" type="curve" smooth="yes"/>
      <point x="865" y="755"/>
      <point x="879" y="774"/>
      <point x="879" y="812" type="curve" smooth="yes"/>
      <point x="879" y="939" type="line" smooth="yes"/>
      <point x="879" y="973"/>
      <point x="865" y="990"/>
      <point x="836" y="990" type="curve" smooth="yes"/>
      <point x="815" y="990"/>
      <point x="802" y="979"/>
      <point x="795" y="956" type="curve"/>
      <point x="735" y="1003"/>
      <point x="662" y="1028"/>
      <point x="577" y="1031" type="curve"/>
      <point x="577" y="1278" type="line" smooth="yes"/>
      <point x="577" y="1315"/>
      <point x="563" y="1334"/>
      <point x="535" y="1334" type="curve" smooth="yes"/>
      <point x="507" y="1334"/>
      <point x="493" y="1315"/>
      <point x="493" y="1278" type="curve" smooth="yes"/>
      <point x="493" y="1028" type="line"/>
      <point x="388" y="1005"/>
      <point x="306" y="963"/>
      <point x="247" y="901" type="curve" smooth="yes"/>
      <point x="182" y="833"/>
      <point x="150" y="747"/>
      <point x="150" y="644" type="curve" smooth="yes"/>
      <point x="150" y="445"/>
      <point x="296" y="285"/>
      <point x="493" y="261" type="curve"/>
      <point x="493" y="54" type="line" smooth="yes"/>
      <point x="493" y="17"/>
      <point x="507" y="-2"/>
    </contour>
  </outline>
</glyph>
<glyph name="logicalnot" format="2">
  <advance width="1359"/>
  <unicode hex="00AC"/>
  <note>
logicalnot
</note>
  <outline>
    <contour>
      <point x="1169" y="203" type="curve" smooth="yes"/>
      <point x="1197" y="203"/>
      <point x="1211" y="221"/>
      <point x="1211" y="256" type="curve" smooth="yes"/>
      <point x="1211" y="763" type="line"/>
      <point x="203" y="763" type="line" smooth="yes"/>
      <point x="168" y="763"/>
      <point x="150" y="749"/>
      <point x="150" y="721" type="curve" smooth="yes"/>
      <point x="150" y="693"/>
      <point x="169" y="679"/>
      <point x="206" y="679" type="curve" smooth="yes"/>
      <point x="1126" y="679" type="line"/>
      <point x="1126" y="259" type="line" smooth="yes"/>
      <point x="1126" y="222"/>
      <point x="1140" y="203"/>
    </contour>
  </outline>
</glyph>
<glyph name="registered" format="2">
  <advance width="1523"/>
  <unicode hex="00AE"/>
  <note>
registered
</note>
  <outline>
    <contour>
      <point x="761" y="-29" type="curve" smooth="yes"/>
      <point x="1101" y="-29"/>
      <point x="1373" y="242"/>
      <point x="1373" y="582" type="curve" smooth="yes"/>
      <point x="1373" y="923"/>
      <point x="1102" y="1194"/>
      <point x="761" y="1194" type="curve" smooth="yes"/>
      <point x="421" y="1194"/>
      <point x="150" y="922"/>
      <point x="150" y="582" type="curve" smooth="yes"/>
      <point x="150" y="242"/>
      <point x="421" y="-29"/>
    </contour>
    <contour>
      <point x="761" y="39" type="curve" smooth="yes"/>
      <point x="458" y="39"/>
      <point x="217" y="279"/>
      <point x="217" y="582" type="curve" smooth="yes"/>
      <point x="217" y="885"/>
      <point x="458" y="1126"/>
      <point x="761" y="1126" type="curve" smooth="yes"/>
      <point x="1065" y="1126"/>
      <point x="1305" y="886"/>
      <point x="1305" y="582" type="curve" smooth="yes"/>
      <point x="1305" y="279"/>
      <point x="1064" y="39"/>
    </contour>
    <contour>
      <point x="568" y="300" type="curve" smooth="yes"/>
      <point x="681" y="300" type="line" smooth="yes"/>
      <point x="700" y="300"/>
      <point x="709" y="307"/>
      <point x="709" y="321" type="curve" smooth="yes"/>
      <point x="709" y="335"/>
      <point x="700" y="342"/>
      <point x="681" y="342" type="curve" smooth="yes"/>
      <point x="645" y="342" type="line"/>
      <point x="645" y="561" type="line"/>
      <point x="789" y="561" type="line"/>
      <point x="958" y="300" type="line"/>
      <point x="1027" y="300" type="line" smooth="yes"/>
      <point x="1046" y="299"/>
      <point x="1055" y="306"/>
      <point x="1055" y="321" type="curve" smooth="yes"/>
      <point x="1055" y="335"/>
      <point x="1046" y="342"/>
      <point x="1027" y="342" type="curve" smooth="yes"/>
      <point x="992" y="342" type="line"/>
      <point x="842" y="572" type="line"/>
      <point x="939" y="605"/>
      <point x="987" y="655"/>
      <point x="987" y="723" type="curve" smooth="yes"/>
      <point x="987" y="770"/>
      <point x="967" y="809"/>
      <point x="927" y="840" type="curve" smooth="yes"/>
      <point x="890" y="870"/>
      <point x="848" y="885"/>
      <point x="801" y="885" type="curve" smooth="yes"/>
      <point x="568" y="886" type="line" smooth="yes"/>
      <point x="549" y="886"/>
      <point x="540" y="879"/>
      <point x="540" y="865" type="curve" smooth="yes"/>
      <point x="540" y="850"/>
      <point x="549" y="843"/>
      <point x="568" y="843" type="curve" smooth="yes"/>
      <point x="603" y="843" type="line"/>
      <point x="603" y="342" type="line"/>
      <point x="568" y="342" type="line" smooth="yes"/>
      <point x="549" y="342"/>
      <point x="540" y="335"/>
      <point x="540" y="321" type="curve" smooth="yes"/>
      <point x="540" y="307"/>
      <point x="549" y="300"/>
    </contour>
    <contour>
      <point x="645" y="603" type="line"/>
      <point x="645" y="843" type="line"/>
      <point x="800" y="843" type="line" smooth="yes"/>
      <point x="834" y="843"/>
      <point x="866" y="832"/>
      <point x="896" y="811" type="curve" smooth="yes"/>
      <point x="929" y="787"/>
      <point x="945" y="758"/>
      <point x="945" y="725" type="curve" smooth="yes"/>
      <point x="945" y="686"/>
      <point x="923" y="655"/>
      <point x="878" y="632" type="curve" smooth="yes"/>
      <point x="841" y="613"/>
      <point x="802" y="603"/>
      <point x="760" y="603" type="curve" smooth="yes"/>
    </contour>
  </outline>
</glyph>
<glyph name="twosuperior" format="2">
  <advance width="800"/>
  <unicode hex="00B2"/>
  <note>
twosuperior
</note>
  <outline>
    <contour>
      <point x="206" y="529" type="line"/>
      <point x="592" y="529" type="line"/>
      <point x="592" y="580"/>
      <point x="593" y="596"/>
      <point x="594" y="578" type="curve"/>
      <point x="592" y="603"/>
      <point x="584" y="615"/>
      <point x="571" y="615" type="curve" smooth="yes"/>
      <point x="557" y="615"/>
      <point x="550" y="600"/>
      <point x="550" y="571" type="curve"/>
      <point x="247" y="571" type="line"/>
      <point x="247" y="574" type="line"/>
      <point x="298" y="618"/>
      <point x="359" y="677"/>
      <point x="429" y="750" type="curve" smooth="yes"/>
      <point x="518" y="842"/>
      <point x="569" y="905"/>
      <point x="582" y="940" type="curve" smooth="yes"/>
      <point x="589" y="956"/>
      <point x="592" y="974"/>
      <point x="592" y="993" type="curve" smooth="yes"/>
      <point x="592" y="1092"/>
      <point x="500" y="1171"/>
      <point x="400" y="1171" type="curve" smooth="yes"/>
      <point x="326" y="1171"/>
      <point x="270" y="1142"/>
      <point x="233" y="1083" type="curve" smooth="yes"/>
      <point x="216" y="1056"/>
      <point x="207" y="1034"/>
      <point x="207" y="1018" type="curve" smooth="yes"/>
      <point x="207" y="1005"/>
      <point x="214" y="999"/>
      <point x="227" y="999" type="curve" smooth="yes"/>
      <point x="232" y="999"/>
      <point x="237" y="1001"/>
      <point x="241" y="1004" type="curve"/>
      <point x="244" y="1010"/>
      <point x="247" y="1015"/>
      <point x="248" y="1019" type="curve" smooth="yes"/>
      <point x="270" y="1092"/>
      <point x="321" y="1129"/>
      <point x="401" y="1129" type="curve" smooth="yes"/>
      <point x="478" y="1129"/>
      <point x="549" y="1068"/>
      <point x="549" y="992" type="curve" smooth="yes"/>
      <point x="549" y="979"/>
      <point x="546" y="965"/>
      <point x="541" y="952" type="curve" smooth="yes"/>
      <point x="530" y="922"/>
      <point x="478" y="860"/>
      <point x="387" y="766" type="curve" smooth="yes"/>
      <point x="319" y="697"/>
      <point x="259" y="638"/>
      <point x="206" y="591" type="curve"/>
    </contour>
  </outline>
</glyph>
<glyph name="acute" format="2">
  <advance width="705"/>
  <unicode hex="00B4"/>
  <note>
acute
</note>
  <outline>
    <contour>
      <point x="192" y="1013" type="curve" smooth="yes"/>
      <point x="202" y="1013"/>
      <point x="215" y="1020"/>
      <point x="230" y="1033" type="curve" smooth="yes"/>
      <point x="467" y="1237" type="line" smooth="yes"/>
      <point x="484" y="1252"/>
      <point x="492" y="1265"/>
      <point x="492" y="1278" type="curve" smooth="yes"/>
      <point x="492" y="1307"/>
      <point x="478" y="1321"/>
      <point x="450" y="1321" type="curve" smooth="yes"/>
      <point x="439" y="1321"/>
      <point x="426" y="1314"/>
      <point x="411" y="1301" type="curve" smooth="yes"/>
      <point x="175" y="1097" type="line" smooth="yes"/>
      <point x="158" y="1082"/>
      <point x="150" y="1069"/>
      <point x="150" y="1056" type="curve" smooth="yes"/>
      <point x="150" y="1027"/>
      <point x="164" y="1013"/>
    </contour>
  </outline>
</glyph>
<glyph name="AE" format="2">
  <advance width="1620"/>
  <unicode hex="00C6"/>
  <note>
AE
</note>
  <outline>
    <contour>
      <point x="665" y="-2" type="curve"/>
      <point x="1470" y="-1" type="line"/>
      <point x="1470" y="154" type="line" smooth="yes"/>
      <point x="1470" y="191"/>
      <point x="1456" y="210"/>
      <point x="1428" y="210" type="curve" smooth="yes"/>
      <point x="1399" y="210"/>
      <point x="1384" y="191"/>
      <point x="1385" y="154" type="curve" smooth="yes"/>
      <point x="1386" y="83" type="line"/>
      <point x="820" y="83" type="line"/>
      <point x="820" y="564" type="line"/>
      <point x="1071" y="564" type="line"/>
      <point x="1071" y="493" type="line" smooth="yes"/>
      <point x="1071" y="456"/>
      <point x="1085" y="437"/>
      <point x="1114" y="437" type="curve" smooth="yes"/>
      <point x="1142" y="437"/>
      <point x="1156" y="456"/>
      <point x="1156" y="493" type="curve" smooth="yes"/>
      <point x="1156" y="719" type="line" smooth="yes"/>
      <point x="1156" y="756"/>
      <point x="1142" y="775"/>
      <point x="1114" y="775" type="curve" smooth="yes"/>
      <point x="1085" y="775"/>
      <point x="1071" y="756"/>
      <point x="1071" y="719" type="curve" smooth="yes"/>
      <point x="1071" y="648" type="line"/>
      <point x="820" y="648" type="line"/>
      <point x="820" y="1085" type="line"/>
      <point x="1342" y="1085" type="line"/>
      <point x="1341" y="1014" type="line" smooth="yes"/>
      <point x="1340" y="977"/>
      <point x="1355" y="958"/>
      <point x="1384" y="958" type="curve" smooth="yes"/>
      <point x="1412" y="958"/>
      <point x="1426" y="977"/>
      <point x="1426" y="1014" type="curve" smooth="yes"/>
      <point x="1426" y="1169" type="line"/>
      <point x="665" y="1170" type="line" smooth="yes"/>
      <point x="628" y="1170"/>
      <point x="609" y="1156"/>
      <point x="609" y="1128" type="curve" smooth="yes"/>
      <point x="609" y="1105"/>
      <point x="621" y="1091"/>
      <point x="646" y="1087" type="curve"/>
      <point x="277" y="84" type="line"/>
      <point x="206" y="84" type="line" smooth="yes"/>
      <point x="169" y="84"/>
      <point x="150" y="70"/>
      <point x="150" y="41" type="curve" smooth="yes"/>
      <point x="150" y="13"/>
      <point x="169" y="-1"/>
      <point x="206" y="-1" type="curve" smooth="yes"/>
      <point x="432" y="-1" type="line" smooth="yes"/>
      <point x="469" y="-1"/>
      <point x="488" y="13"/>
      <point x="488" y="41" type="curve" smooth="yes"/>
      <point x="488" y="70"/>
      <point x="469" y="84"/>
      <point x="432" y="84" type="curve" smooth="yes"/>
      <point x="371" y="84" type="line"/>
      <point x="478" y="391" type="line"/>
      <point x="736" y="391" type="line"/>
      <point x="736" y="83" type="line"/>
      <point x="665" y="83" type="line" smooth="yes"/>
      <point x="628" y="83"/>
      <point x="609" y="69"/>
      <point x="609" y="40" type="curve" smooth="yes"/>
      <point x="609" y="28"/>
      <point x="613" y="18"/>
      <point x="622" y="10" type="curve"/>
      <point x="639" y="3"/>
      <point x="654" y="-1"/>
    </contour>
    <contour>
      <point x="510" y="475" type="line"/>
      <point x="736" y="1082" type="line"/>
      <point x="736" y="475" type="line"/>
    </contour>
  </outline>
</glyph>
<glyph name="Oslash" format="2">
  <advance width="1324"/>
  <unicode hex="00D8"/>
  <note>
Oslash
</note>
  <outline>
    <contour>
      <point x="169" y="-85" type="curve" smooth="yes"/>
      <point x="186" y="-85"/>
      <point x="216" y="-58"/>
      <point x="259" y="-3" type="curve" smooth="yes"/>
      <point x="337" y="103" type="line"/>
      <point x="431" y="12"/>
      <point x="539" y="-34"/>
      <point x="662" y="-34" type="curve" smooth="yes"/>
      <point x="816" y="-34"/>
      <point x="942" y="32"/>
      <point x="1040" y="163" type="curve" smooth="yes"/>
      <point x="1129" y="283"/>
      <point x="1174" y="422"/>
      <point x="1174" y="581" type="curve" smooth="yes"/>
      <point x="1174" y="741"/>
      <point x="1130" y="880"/>
      <point x="1041" y="998" type="curve"/>
      <point x="1144" y="1129"/>
      <point x="1195" y="1199"/>
      <point x="1195" y="1208" type="curve" smooth="yes"/>
      <point x="1195" y="1237"/>
      <point x="1181" y="1251"/>
      <point x="1153" y="1251" type="curve" smooth="yes"/>
      <point x="1136" y="1251"/>
      <point x="1105" y="1224"/>
      <point x="1062" y="1169" type="curve" smooth="yes"/>
      <point x="984" y="1062" type="line"/>
      <point x="891" y="1151"/>
      <point x="784" y="1196"/>
      <point x="662" y="1196" type="curve" smooth="yes"/>
      <point x="507" y="1196"/>
      <point x="381" y="1130"/>
      <point x="283" y="999" type="curve" smooth="yes"/>
      <point x="194" y="880"/>
      <point x="150" y="740"/>
      <point x="150" y="580" type="curve" smooth="yes"/>
      <point x="150" y="426"/>
      <point x="194" y="289"/>
      <point x="281" y="168" type="curve"/>
      <point x="178" y="37"/>
      <point x="126" y="-33"/>
      <point x="126" y="-42" type="curve" smooth="yes"/>
      <point x="126" y="-71"/>
      <point x="140" y="-85"/>
    </contour>
    <contour>
      <point x="662" y="50" type="curve" smooth="yes"/>
      <point x="561" y="50"/>
      <point x="471" y="90"/>
      <point x="390" y="171" type="curve"/>
      <point x="986" y="928" type="line"/>
      <point x="1055" y="827"/>
      <point x="1089" y="712"/>
      <point x="1089" y="581" type="curve" smooth="yes"/>
      <point x="1089" y="447"/>
      <point x="1052" y="328"/>
      <point x="979" y="224" type="curve" smooth="yes"/>
      <point x="896" y="108"/>
      <point x="791" y="50"/>
    </contour>
    <contour>
      <point x="336" y="238" type="line"/>
      <point x="268" y="339"/>
      <point x="234" y="454"/>
      <point x="234" y="581" type="curve" smooth="yes"/>
      <point x="234" y="715"/>
      <point x="271" y="834"/>
      <point x="345" y="938" type="curve" smooth="yes"/>
      <point x="427" y="1054"/>
      <point x="533" y="1112"/>
      <point x="662" y="1112" type="curve" smooth="yes"/>
      <point x="760" y="1112"/>
      <point x="849" y="1073"/>
      <point x="930" y="994" type="curve"/>
    </contour>
  </outline>
</glyph>
<glyph name="Ucircumflex" format="2">
  <advance width="1360"/>
  <unicode hex="00DB"/>
  <note>
Ucircumflex
</note>
  <outline>
    <contour>
      <point x="685" y="-32" type="curve" smooth="yes"/>
      <point x="800" y="-32"/>
      <point x="896" y="9"/>
      <point x="974" y="91" type="curve" smooth="yes"/>
      <point x="1050" y="171"/>
      <point x="1088" y="269"/>
      <point x="1088" y="385" type="curve" smooth="yes"/>
      <point x="1088" y="1087" type="line"/>
      <point x="1159" y="1087" type="line" smooth="yes"/>
      <point x="1196" y="1087"/>
      <point x="1215" y="1101"/>
      <point x="1215" y="1130" type="curve" smooth="yes"/>
      <point x="1215" y="1158"/>
      <point x="1196" y="1172"/>
      <point x="1159" y="1172" type="curve" smooth="yes"/>
      <point x="933" y="1172" type="line" smooth="yes"/>
      <point x="896" y="1172"/>
      <point x="877" y="1158"/>
      <point x="877" y="1130" type="curve" smooth="yes"/>
      <point x="877" y="1101"/>
      <point x="896" y="1087"/>
      <point x="933" y="1087" type="curve" smooth="yes"/>
      <point x="1004" y="1087" type="line"/>
      <point x="1004" y="385" type="line" smooth="yes"/>
      <point x="1004" y="205"/>
      <point x="861" y="52"/>
      <point x="681" y="52" type="curve" smooth="yes"/>
      <point x="591" y="52"/>
      <point x="515" y="85"/>
      <point x="453" y="152" type="curve" smooth="yes"/>
      <point x="392" y="217"/>
      <point x="361" y="294"/>
      <point x="361" y="385" type="curve" smooth="yes"/>
      <point x="361" y="1087" type="line"/>
      <point x="432" y="1087" type="line" smooth="yes"/>
      <point x="469" y="1087"/>
      <point x="488" y="1101"/>
      <point x="488" y="1130" type="curve" smooth="yes"/>
      <point x="488" y="1158"/>
      <point x="469" y="1172"/>
      <point x="432" y="1172" type="curve" smooth="yes"/>
      <point x="206" y="1172" type="line" smooth="yes"/>
      <point x="169" y="1172"/>
      <point x="150" y="1158"/>
      <point x="150" y="1130" type="curve" smooth="yes"/>
      <point x="150" y="1101"/>
      <point x="169" y="1087"/>
      <point x="206" y="1087" type="curve" smooth="yes"/>
      <point x="277" y="1087" type="line"/>
      <point x="277" y="385" type="line" smooth="yes"/>
      <point x="277" y="153"/>
      <point x="454" y="-32"/>
    </contour>
    <contour>
      <point x="396" y="1240" type="curve" smooth="yes"/>
      <point x="411" y="1240"/>
      <point x="455" y="1269"/>
      <point x="529" y="1326" type="curve" smooth="yes"/>
      <point x="652" y="1426" type="line"/>
      <point x="776" y="1327" type="line" smooth="yes"/>
      <point x="850" y="1269"/>
      <point x="894" y="1240"/>
      <point x="908" y="1240" type="curve" smooth="yes"/>
      <point x="937" y="1240"/>
      <point x="951" y="1254"/>
      <point x="951" y="1282" type="curve" smooth="yes"/>
      <point x="951" y="1296"/>
      <point x="942" y="1310"/>
      <point x="923" y="1324" type="curve" smooth="yes"/>
      <point x="652" y="1530" type="line"/>
      <point x="382" y="1324" type="line" smooth="yes"/>
      <point x="363" y="1310"/>
      <point x="354" y="1296"/>
      <point x="354" y="1282" type="curve" smooth="yes"/>
      <point x="354" y="1254"/>
      <point x="368" y="1240"/>
    </contour>
  </outline>
</glyph>
<glyph name="ccedilla" format="2">
  <advance width="1094"/>
  <unicode hex="00E7"/>
  <note>
ccedilla
</note>
  <outline>
    <contour>
      <point x="580" y="-333" type="curve" smooth="yes"/>
      <point x="619" y="-333"/>
      <point x="652" y="-324"/>
      <point x="679" y="-305" type="curve" smooth="yes"/>
      <point x="709" y="-284"/>
      <point x="724" y="-254"/>
      <point x="724" y="-216" type="curve" smooth="yes"/>
      <point x="724" y="-154"/>
      <point x="685" y="-117"/>
      <point x="606" y="-106" type="curve"/>
      <point x="608" y="-78" type="line"/>
      <point x="610" y="-35" type="line"/>
      <point x="715" y="-28"/>
      <point x="811" y="3"/>
      <point x="896" y="60" type="curve" smooth="yes"/>
      <point x="957" y="100"/>
      <point x="988" y="133"/>
      <point x="988" y="159" type="curve" smooth="yes"/>
      <point x="988" y="183"/>
      <point x="976" y="195"/>
      <point x="951" y="195" type="curve" smooth="yes"/>
      <point x="943" y="195"/>
      <point x="932" y="189"/>
      <point x="918" y="177" type="curve" smooth="yes"/>
      <point x="814" y="85"/>
      <point x="699" y="39"/>
      <point x="572" y="39" type="curve" smooth="yes"/>
      <point x="371" y="39"/>
      <point x="226" y="177"/>
      <point x="226" y="378" type="curve" smooth="yes"/>
      <point x="226" y="583"/>
      <point x="365" y="725"/>
      <point x="570" y="725" type="curve" smooth="yes"/>
      <point x="659" y="725"/>
      <point x="730" y="706"/>
      <point x="782" y="668" type="curve" smooth="yes"/>
      <point x="825" y="637"/>
      <point x="851" y="604"/>
      <point x="861" y="570" type="curve" smooth="yes"/>
      <point x="879" y="511" type="line"/>
      <point x="886" y="504"/>
      <point x="894" y="501"/>
      <point x="904" y="501" type="curve" smooth="yes"/>
      <point x="930" y="501"/>
      <point x="943" y="518"/>
      <point x="943" y="552" type="curve" smooth="yes"/>
      <point x="943" y="724" type="line" smooth="yes"/>
      <point x="943" y="758"/>
      <point x="930" y="775"/>
      <point x="904" y="775" type="curve" smooth="yes"/>
      <point x="879" y="775"/>
      <point x="867" y="749"/>
      <point x="867" y="698" type="curve"/>
      <point x="788" y="767"/>
      <point x="690" y="802"/>
      <point x="574" y="802" type="curve" smooth="yes"/>
      <point x="329" y="802"/>
      <point x="150" y="622"/>
      <point x="150" y="377" type="curve" smooth="yes"/>
      <point x="150" y="142"/>
      <point x="314" y="-25"/>
      <point x="546" y="-36" type="curve"/>
      <point x="546" y="-163" type="line"/>
      <point x="624" y="-163"/>
      <point x="663" y="-180"/>
      <point x="663" y="-214" type="curve" smooth="yes"/>
      <point x="663" y="-253"/>
      <point x="635" y="-273"/>
      <point x="580" y="-273" type="curve" smooth="yes"/>
      <point x="554" y="-273"/>
      <point x="524" y="-265"/>
      <point x="489" y="-250" type="curve" smooth="yes"/>
      <point x="454" y="-235"/>
      <point x="435" y="-228"/>
      <point x="432" y="-228" type="curve" smooth="yes"/>
      <point x="412" y="-228"/>
      <point x="402" y="-238"/>
      <point x="402" y="-258" type="curve" smooth="yes"/>
      <point x="402" y="-280"/>
      <point x="427" y="-299"/>
      <point x="476" y="-314" type="curve" smooth="yes"/>
      <point x="516" y="-327"/>
      <point x="551" y="-333"/>
    </contour>
  </outline>
</glyph>
<glyph name="eacute" format="2">
  <advance width="1150"/>
  <unicode hex="00E9"/>
  <note>
eacute
</note>
  <outline>
    <contour>
      <point x="606" y="-29" type="curve" smooth="yes"/>
      <point x="683" y="-29"/>
      <point x="759" y="-16"/>
      <point x="833" y="10" type="curve" smooth="yes"/>
      <point x="945" y="50"/>
      <point x="1001" y="88"/>
      <point x="1001" y="125" type="curve" smooth="yes"/>
      <point x="1001" y="150"/>
      <point x="989" y="163"/>
      <point x="965" y="163" type="curve" smooth="yes"/>
      <point x="958" y="163"/>
      <point x="948" y="158"/>
      <point x="935" y="149" type="curve" smooth="yes"/>
      <point x="840" y="81"/>
      <point x="731" y="47"/>
      <point x="606" y="47" type="curve" smooth="yes"/>
      <point x="403" y="47"/>
      <point x="254" y="174"/>
      <point x="227" y="374" type="curve"/>
      <point x="999" y="374" type="line"/>
      <point x="1002" y="627"/>
      <point x="828" y="810"/>
      <point x="575" y="810" type="curve" smooth="yes"/>
      <point x="459" y="810"/>
      <point x="360" y="772"/>
      <point x="277" y="697" type="curve" smooth="yes"/>
      <point x="192" y="620"/>
      <point x="150" y="523"/>
      <point x="150" y="408" type="curve" smooth="yes"/>
      <point x="150" y="156"/>
      <point x="353" y="-29"/>
    </contour>
    <contour>
      <point x="228" y="450" type="line"/>
      <point x="259" y="622"/>
      <point x="399" y="733"/>
      <point x="575" y="733" type="curve" smooth="yes"/>
      <point x="750" y="733"/>
      <point x="892" y="621"/>
      <point x="923" y="450" type="curve"/>
    </contour>
    <contour>
      <point x="575" y="1010" type="curve" smooth="yes"/>
      <point x="585" y="1010"/>
      <point x="598" y="1017"/>
      <point x="613" y="1030" type="curve" smooth="yes"/>
      <point x="849" y="1234" type="line" smooth="yes"/>
      <point x="866" y="1248"/>
      <point x="874" y="1262"/>
      <point x="874" y="1275" type="curve" smooth="yes"/>
      <point x="874" y="1304"/>
      <point x="860" y="1318"/>
      <point x="831" y="1318" type="curve" smooth="yes"/>
      <point x="815" y="1318"/>
      <point x="762" y="1278"/>
      <point x="672" y="1198" type="curve" smooth="yes"/>
      <point x="589" y="1124"/>
      <point x="543" y="1081"/>
      <point x="535" y="1069" type="curve"/>
      <point x="533" y="1063"/>
      <point x="532" y="1058"/>
      <point x="532" y="1053" type="curve" smooth="yes"/>
      <point x="532" y="1024"/>
      <point x="546" y="1010"/>
    </contour>
  </outline>
</glyph>
<glyph name="ydieresis" format="2">
  <advance width="1419"/>
  <unicode hex="00FF"/>
  <note>
ydieresis
</note>
  <outline>
    <contour>
      <point x="343" y="-486" type="curve" smooth="yes"/>
      <point x="583" y="-486" type="line" smooth="yes"/>
      <point x="618" y="-486"/>
      <point x="636" y="-472"/>
      <point x="636" y="-444" type="curve" smooth="yes"/>
      <point x="636" y="-419"/>
      <point x="619" y="-404"/>
      <point x="585" y="-400" type="curve"/>
      <point x="509" y="-401" type="line"/>
      <point x="1144" y="677" type="line"/>
      <point x="1220" y="676" type="line"/>
      <point x="1254" y="680"/>
      <point x="1271" y="695"/>
      <point x="1271" y="720" type="curve" smooth="yes"/>
      <point x="1271" y="748"/>
      <point x="1253" y="762"/>
      <point x="1218" y="762" type="curve" smooth="yes"/>
      <point x="978" y="762" type="line" smooth="yes"/>
      <point x="943" y="762"/>
      <point x="925" y="748"/>
      <point x="925" y="720" type="curve" smooth="yes"/>
      <point x="925" y="695"/>
      <point x="942" y="680"/>
      <point x="976" y="676" type="curve"/>
      <point x="1052" y="677" type="line"/>
      <point x="707" y="92" type="line"/>
      <point x="371" y="677" type="line"/>
      <point x="447" y="676" type="line"/>
      <point x="481" y="680"/>
      <point x="498" y="695"/>
      <point x="498" y="720" type="curve" smooth="yes"/>
      <point x="498" y="748"/>
      <point x="480" y="762"/>
      <point x="445" y="762" type="curve" smooth="yes"/>
      <point x="205" y="762" type="line" smooth="yes"/>
      <point x="170" y="762"/>
      <point x="152" y="748"/>
      <point x="152" y="720" type="curve" smooth="yes"/>
      <point x="152" y="695"/>
      <point x="169" y="680"/>
      <point x="203" y="676" type="curve"/>
      <point x="279" y="677" type="line"/>
      <point x="652" y="0" type="line"/>
      <point x="417" y="-401" type="line"/>
      <point x="341" y="-400" type="line"/>
      <point x="307" y="-404"/>
      <point x="290" y="-419"/>
      <point x="290" y="-444" type="curve" smooth="yes"/>
      <point x="290" y="-472"/>
      <point x="308" y="-486"/>
    </contour>
    <contour>
      <point x="623" y="-474" type="curve"/>
      <point x="509" y="-401" type="line"/>
      <point x="585" y="-400" type="line"/>
      <point x="619" y="-404"/>
      <point x="636" y="-419"/>
      <point x="636" y="-444" type="curve" smooth="yes"/>
      <point x="636" y="-456"/>
      <point x="632" y="-466"/>
    </contour>
    <contour>
      <point x="447" y="676" type="curve"/>
      <point x="371" y="677" type="line"/>
      <point x="485" y="750" type="line"/>
      <point x="494" y="742"/>
      <point x="498" y="732"/>
      <point x="498" y="720" type="curve" smooth="yes"/>
      <point x="498" y="695"/>
      <point x="481" y="680"/>
    </contour>
    <contour>
      <point x="545" y="962" type="curve" smooth="yes"/>
      <point x="588" y="962"/>
      <point x="622" y="997"/>
      <point x="622" y="1038" type="curve" smooth="yes"/>
      <point x="622" y="1081"/>
      <point x="588" y="1116"/>
      <point x="545" y="1116" type="curve" smooth="yes"/>
      <point x="502" y="1116"/>
      <point x="468" y="1082"/>
      <point x="468" y="1038" type="curve" smooth="yes"/>
      <point x="468" y="997"/>
      <point x="502" y="962"/>
    </contour>
    <contour>
      <point x="845" y="962" type="curve" smooth="yes"/>
      <point x="888" y="962"/>
      <point x="922" y="997"/>
      <point x="922" y="1038" type="curve" smooth="yes"/>
      <point x="922" y="1081"/>
      <point x="888" y="1116"/>
      <point x="845" y="1116" type="curve" smooth="yes"/>
      <point x="802" y="1116"/>
      <point x="768" y="1082"/>
      <point x="768" y="1038" type="curve" smooth="yes"/>
      <point x="768" y="997"/>
      <point x="802" y="962"/>
    </contour>
    <contour>
      <point x="1220" y="676" type="curve"/>
      <point x="1144" y="677" type="line"/>
      <point x="1258" y="750" type="line"/>
      <point x="1267" y="742"/>
      <point x="1271" y="732"/>
      <point x="1271" y="720" type="curve" smooth="yes"/>
      <point x="1271" y="695"/>
      <point x="1254" y="680"/>
    </contour>
  </outline>
</glyph>
<glyph name="U0050U0331" format="2">
  <advance width="1192"/>
  <unicode hex="011F"/>
  <note>
U0050U0331
</note>
  <outline>
    <contour>
      <point x="206" y="-2" type="curve" smooth="yes"/>
      <point x="432" y="-2" type="line" smooth="yes"/>
      <point x="469" y="-2"/>
      <point x="488" y="12"/>
      <point x="488" y="40" type="curve" smooth="yes"/>
      <point x="488" y="69"/>
      <point x="469" y="83"/>
      <point x="432" y="83" type="curve" smooth="yes"/>
      <point x="361" y="83" type="line"/>
      <point x="361" y="479" type="line"/>
      <point x="495" y="476" type="line" smooth="yes"/>
      <point x="554" y="474"/>
      <point x="601" y="474"/>
      <point x="638" y="476" type="curve" smooth="yes"/>
      <point x="690" y="479"/>
      <point x="733" y="487"/>
      <point x="768" y="498" type="curve" smooth="yes"/>
      <point x="849" y="525"/>
      <point x="914" y="565"/>
      <point x="963" y="618" type="curve" smooth="yes"/>
      <point x="1017" y="677"/>
      <point x="1044" y="747"/>
      <point x="1044" y="828" type="curve" smooth="yes"/>
      <point x="1044" y="930"/>
      <point x="1003" y="1013"/>
      <point x="922" y="1078" type="curve" smooth="yes"/>
      <point x="846" y="1139"/>
      <point x="756" y="1169"/>
      <point x="652" y="1169" type="curve" smooth="yes"/>
      <point x="206" y="1170" type="line" smooth="yes"/>
      <point x="169" y="1170"/>
      <point x="150" y="1156"/>
      <point x="150" y="1128" type="curve" smooth="yes"/>
      <point x="150" y="1099"/>
      <point x="169" y="1085"/>
      <point x="206" y="1085" type="curve" smooth="yes"/>
      <point x="277" y="1085" type="line"/>
      <point x="277" y="83" type="line"/>
      <point x="206" y="83" type="line" smooth="yes"/>
      <point x="169" y="83"/>
      <point x="150" y="69"/>
      <point x="150" y="40" type="curve" smooth="yes"/>
      <point x="150" y="12"/>
      <point x="169" y="-2"/>
    </contour>
    <contour>
      <point x="369" y="-285" type="curve" smooth="yes"/>
      <point x="861" y="-285" type="line" smooth="yes"/>
      <point x="897" y="-285"/>
      <point x="915" y="-271"/>
      <point x="915" y="-243" type="curve" smooth="yes"/>
      <point x="915" y="-214"/>
      <point x="896" y="-200"/>
      <point x="859" y="-200" type="curve" smooth="yes"/>
      <point x="373" y="-200" type="line" smooth="yes"/>
      <point x="336" y="-200"/>
      <point x="317" y="-214"/>
      <point x="317" y="-243" type="curve" smooth="yes"/>
      <point x="317" y="-271"/>
      <point x="334" y="-285"/>
    </contour>
    <contour>
      <point x="361" y="563" type="line"/>
      <point x="361" y="1085" type="line"/>
      <point x="660" y="1085" type="line" smooth="yes"/>
      <point x="737" y="1085"/>
      <point x="805" y="1062"/>
      <point x="864" y="1016" type="curve" smooth="yes"/>
      <point x="928" y="966"/>
      <point x="960" y="903"/>
      <point x="960" y="828" type="curve" smooth="yes"/>
      <point x="960" y="749"/>
      <point x="923" y="684"/>
      <point x="850" y="632" type="curve" smooth="yes"/>
      <point x="785" y="586"/>
      <point x="711" y="563"/>
      <point x="629" y="563" type="curve" smooth="yes"/>
    </contour>
  </outline>
</glyph>
<glyph name="U032d" format="2">
  <advance width="855"/>
  <unicode hex="032D"/>
  <note>
U032d
</note>
  <anchor x="0" y="-105" name="_class2"/>
  <outline>
    <contour>
      <point x="-354" y="-439" type="line"/>
      <point x="-270" y="-439" type="line"/>
      <point x="2" y="-84" type="line"/>
      <point x="121" y="-213"/>
      <point x="228" y="-330"/>
      <point x="321" y="-437" type="curve"/>
      <point x="400" y="-437" type="line"/>
      <point x="31" y="0" type="line"/>
      <point x="-19" y="0" type="line"/>
    </contour>
  </outline>
</glyph>
<glyph name="U0621" format="2">
  <advance width="337"/>
  <unicode hex="0621"/>
  <note>
U0621
</note>
  <anchor x="135" y="405" name="class0"/>
  <anchor x="120" y="-120" name="class0_"/>
  <anchor x="135" y="405" name="class1"/>
  <anchor x="120" y="-180" name="class2"/>
  <anchor x="135" y="-195" name="class3"/>
  <outline>
    <contour>
      <point x="0" y="0" type="curve"/>
      <point x="219" y="63" type="line" smooth="yes"/>
      <point x="228" y="65"/>
      <point x="234" y="72"/>
      <point x="238" y="84" type="curve" smooth="yes"/>
      <point x="246" y="114" type="line"/>
      <point x="218" y="107"/>
      <point x="197" y="103"/>
      <point x="184" y="103" type="curve" smooth="yes"/>
      <point x="151" y="103"/>
      <point x="114" y="123"/>
      <point x="71" y="163" type="curve"/>
      <point x="92" y="180"/>
      <point x="110" y="189"/>
      <point x="125" y="189" type="curve" smooth="yes"/>
      <point x="141" y="189"/>
      <point x="162" y="180"/>
      <point x="189" y="163" type="curve"/>
      <point x="204" y="186"/>
      <point x="212" y="204"/>
      <point x="212" y="217" type="curve" smooth="yes"/>
      <point x="212" y="246"/>
      <point x="198" y="261"/>
      <point x="171" y="261" type="curve" smooth="yes"/>
      <point x="120" y="261"/>
      <point x="28" y="180"/>
      <point x="28" y="133" type="curve" smooth="yes"/>
      <point x="28" y="108"/>
      <point x="45" y="88"/>
      <point x="80" y="71" type="curve"/>
      <point x="34" y="54"/>
      <point x="7" y="30"/>
    </contour>
  </outline>
</glyph>
<glyph name="U064c" format="2">
  <advance width="0"/>
  <unicode hex="064C"/>
  <note>
U064c
</note>
  <anchor x="150" y="15" name="_class0"/>
  <outline>
    <contour>
      <point x="52" y="-4" type="curve"/>
      <point x="113" y="5"/>
      <point x="177" y="43"/>
      <point x="242" y="111" type="curve"/>
      <point x="269" y="91"/>
      <point x="294" y="75"/>
      <point x="315" y="64" type="curve"/>
      <point x="316" y="77"/>
      <point x="317" y="93"/>
      <point x="317" y="111" type="curve" smooth="yes"/>
      <point x="317" y="132"/>
      <point x="307" y="151"/>
      <point x="286" y="167" type="curve"/>
      <point x="303" y="211"/>
      <point x="312" y="241"/>
      <point x="312" y="257" type="curve" smooth="yes"/>
      <point x="312" y="286"/>
      <point x="286" y="321"/>
      <point x="258" y="321" type="curve" smooth="yes"/>
      <point x="209" y="321"/>
      <point x="161" y="256"/>
      <point x="161" y="204" type="curve" smooth="yes"/>
      <point x="161" y="177"/>
      <point x="179" y="153"/>
      <point x="214" y="130" type="curve"/>
      <point x="183" y="95"/>
      <point x="150" y="71"/>
      <point x="115" y="58" type="curve"/>
      <point x="120" y="144" type="line"/>
      <point x="120" y="189"/>
      <point x="102" y="211"/>
      <point x="67" y="211" type="curve" smooth="yes"/>
      <point x="46" y="211"/>
      <point x="30" y="201"/>
      <point x="17" y="181" type="curve" smooth="yes"/>
      <point x="6" y="164"/>
      <point x="0" y="145"/>
      <point x="0" y="123" type="curve" smooth="yes"/>
      <point x="0" y="112"/>
      <point x="3" y="98"/>
      <point x="8" y="82" type="curve"/>
      <point x="11" y="122"/>
      <point x="24" y="142"/>
      <point x="47" y="142" type="curve" smooth="yes"/>
      <point x="73" y="142"/>
      <point x="86" y="128"/>
      <point x="86" y="99" type="curve" smooth="yes"/>
      <point x="86" y="78"/>
      <point x="75" y="44"/>
    </contour>
    <contour>
      <point x="253" y="195" type="curve"/>
      <point x="220" y="218"/>
      <point x="203" y="236"/>
      <point x="203" y="249" type="curve" smooth="yes"/>
      <point x="203" y="262"/>
      <point x="210" y="268"/>
      <point x="224" y="268" type="curve" smooth="yes"/>
      <point x="246" y="268"/>
      <point x="257" y="254"/>
      <point x="257" y="226" type="curve" smooth="yes"/>
      <point x="257" y="211"/>
      <point x="256" y="201"/>
    </contour>
  </outline>
</glyph>
<glyph name="U0652" format="2">
  <advance width="0"/>
  <unicode hex="0652"/>
  <note>
U0652
</note>
  <anchor x="120" y="0" name="_class0"/>
  <outline>
    <contour>
      <point x="98" y="0" type="curve" smooth="yes"/>
      <point x="163" y="0"/>
      <point x="218" y="63"/>
      <point x="218" y="130" type="curve" smooth="yes"/>
      <point x="218" y="187"/>
      <point x="177" y="248"/>
      <point x="122" y="248" type="curve" smooth="yes"/>
      <point x="85" y="248"/>
      <point x="57" y="231"/>
      <point x="37" y="197" type="curve" smooth="yes"/>
      <point x="21" y="169"/>
      <point x="13" y="135"/>
      <point x="13" y="96" type="curve" smooth="yes"/>
      <point x="13" y="32"/>
      <point x="41" y="0"/>
    </contour>
    <contour>
      <point x="112" y="79" type="curve" smooth="yes"/>
      <point x="63" y="79"/>
      <point x="39" y="94"/>
      <point x="39" y="125" type="curve" smooth="yes"/>
      <point x="39" y="161"/>
      <point x="55" y="179"/>
      <point x="86" y="179" type="curve" smooth="yes"/>
      <point x="117" y="179"/>
      <point x="174" y="140"/>
      <point x="174" y="111" type="curve" smooth="yes"/>
      <point x="174" y="90"/>
      <point x="153" y="79"/>
    </contour>
  </outline>
</glyph>
<glyph name="U0655" format="2">
  <advance width="0"/>
  <unicode hex="0655"/>
  <note>
U0655
</note>
  <anchor x="150" y="0" name="_class2"/>
  <outline>
    <contour>
      <point x="8" y="-261" type="curve"/>
      <point x="227" y="-199" type="line" smooth="yes"/>
      <point x="235" y="-196"/>
      <point x="241" y="-189"/>
      <point x="246" y="-177" type="curve"/>
      <point x="254" y="-147" type="line"/>
      <point x="226" y="-154"/>
      <point x="205" y="-158"/>
      <point x="192" y="-158" type="curve" smooth="yes"/>
      <point x="159" y="-158"/>
      <point x="122" y="-138"/>
      <point x="79" y="-98" type="curve"/>
      <point x="100" y="-81"/>
      <point x="118" y="-72"/>
      <point x="133" y="-72" type="curve" smooth="yes"/>
      <point x="148" y="-72"/>
      <point x="170" y="-81"/>
      <point x="197" y="-98" type="curve"/>
      <point x="212" y="-75"/>
      <point x="220" y="-57"/>
      <point x="220" y="-44" type="curve" smooth="yes"/>
      <point x="220" y="-15"/>
      <point x="206" y="0"/>
      <point x="179" y="0" type="curve" smooth="yes"/>
      <point x="128" y="0"/>
      <point x="36" y="-81"/>
      <point x="36" y="-129" type="curve" smooth="yes"/>
      <point x="36" y="-153"/>
      <point x="53" y="-174"/>
      <point x="88" y="-191" type="curve"/>
      <point x="42" y="-208"/>
      <point x="15" y="-231"/>
    </contour>
  </outline>
</glyph>
<glyph name="U0665" format="2">
  <advance width="826"/>
  <unicode hex="0665"/>
  <note>
U0665
</note>
  <outline>
    <contour>
      <point x="374" y="176" type="curve" smooth="yes"/>
      <point x="509" y="176"/>
      <point x="568" y="216"/>
      <point x="625" y="340" type="curve" smooth="yes"/>
      <point x="648" y="389"/>
      <point x="659" y="431"/>
      <point x="659" y="467" type="curve" smooth="yes"/>
      <point x="659" y="524"/>
      <point x="630" y="576"/>
      <point x="572" y="625" type="curve" smooth="yes"/>
      <point x="517" y="672"/>
      <point x="460" y="696"/>
      <point x="403" y="696" type="curve" smooth="yes"/>
      <point x="350" y="696"/>
      <point x="297" y="647"/>
      <point x="245" y="548" type="curve" smooth="yes"/>
      <point x="199" y="459"/>
      <point x="176" y="385"/>
      <point x="176" y="326" type="curve" smooth="yes"/>
      <point x="176" y="277"/>
      <point x="198" y="239"/>
      <point x="241" y="212" type="curve" smooth="yes"/>
      <point x="278" y="188"/>
      <point x="323" y="176"/>
    </contour>
    <contour>
      <point x="454" y="309" type="curve" smooth="yes"/>
      <point x="309" y="309"/>
      <point x="236" y="343"/>
      <point x="236" y="411" type="curve" smooth="yes"/>
      <point x="236" y="444"/>
      <point x="246" y="478"/>
      <point x="267" y="515" type="curve" smooth="yes"/>
      <point x="290" y="557"/>
      <point x="317" y="578"/>
      <point x="347" y="578" type="curve" smooth="yes"/>
      <point x="390" y="578"/>
      <point x="443" y="555"/>
      <point x="504" y="509" type="curve" smooth="yes"/>
      <point x="569" y="461"/>
      <point x="601" y="416"/>
      <point x="601" y="374" type="curve" smooth="yes"/>
      <point x="601" y="331"/>
      <point x="552" y="309"/>
    </contour>
  </outline>
</glyph>
<glyph name="U0668" format="2">
  <advance width="826"/>
  <unicode hex="0668"/>
  <note>
U0668
</note>
  <outline>
    <contour>
      <point x="116" y="1" type="line"/>
      <point x="226" y="55"/>
      <point x="321" y="281"/>
      <point x="400" y="679" type="curve"/>
      <point x="438" y="512"/>
      <point x="472" y="388"/>
      <point x="503" y="305" type="curve" smooth="yes"/>
      <point x="564" y="139"/>
      <point x="633" y="39"/>
      <point x="710" y="6" type="curve"/>
      <point x="722" y="211" type="line"/>
      <point x="642" y="249"/>
      <point x="572" y="342"/>
      <point x="511" y="491" type="curve" smooth="yes"/>
      <point x="464" y="606"/>
      <point x="432" y="724"/>
      <point x="417" y="844" type="curve"/>
      <point x="388" y="844" type="line"/>
      <point x="372" y="716"/>
      <point x="345" y="596"/>
      <point x="307" y="485" type="curve" smooth="yes"/>
      <point x="254" y="332"/>
      <point x="191" y="233"/>
      <point x="116" y="189" type="curve"/>
    </contour>
  </outline>
</glyph>
<glyph name="U0670" format="2">
  <advance width="0"/>
  <unicode hex="0670"/>
  <note>
U0670
</note>
  <outline>
    <contour>
      <point x="61" y="-2" type="line"/>
      <point x="86" y="40"/>
      <point x="99" y="73"/>
      <point x="99" y="97" type="curve" smooth="yes"/>
      <point x="99" y="130"/>
      <point x="91" y="179"/>
      <point x="76" y="243" type="curve" smooth="yes"/>
      <point x="60" y="307"/>
      <point x="52" y="355"/>
      <point x="51" y="388" type="curve"/>
      <point x="20" y="353"/>
      <point x="4" y="324"/>
      <point x="4" y="303" type="curve" smooth="yes"/>
      <point x="4" y="274"/>
      <point x="13" y="231"/>
      <point x="30" y="174" type="curve" smooth="yes"/>
      <point x="47" y="117"/>
      <point x="56" y="73"/>
      <point x="56" y="44" type="curve" smooth="yes"/>
      <point x="56" y="35"/>
      <point x="53" y="20"/>
      <point x="47" y="0" type="curve"/>
    </contour>
  </outline>
</glyph>
<glyph name="U1e0c" format="2">
  <advance width="1283"/>
  <unicode hex="1E0C"/>
  <note>
U1e0c
</note>
  <outline>
    <contour>
      <point x="206" y="-1" type="curve"/>
      <point x="658" y="0" type="line" smooth="yes"/>
      <point x="794" y="0"/>
      <point x="908" y="55"/>
      <point x="1001" y="164" type="curve" smooth="yes"/>
      <point x="1090" y="268"/>
      <point x="1134" y="389"/>
      <point x="1134" y="527" type="curve" smooth="yes"/>
      <point x="1134" y="675"/>
      <point x="1124" y="774"/>
      <point x="1105" y="825" type="curve" smooth="yes"/>
      <point x="1018" y="1055"/>
      <point x="869" y="1170"/>
      <point x="658" y="1170" type="curve" smooth="yes"/>
      <point x="206" y="1169" type="line" smooth="yes"/>
      <point x="169" y="1169"/>
      <point x="150" y="1155"/>
      <point x="150" y="1127" type="curve" smooth="yes"/>
      <point x="150" y="1098"/>
      <point x="169" y="1084"/>
      <point x="206" y="1084" type="curve" smooth="yes"/>
      <point x="277" y="1084" type="line"/>
      <point x="277" y="84" type="line"/>
      <point x="206" y="84" type="line" smooth="yes"/>
      <point x="169" y="84"/>
      <point x="150" y="70"/>
      <point x="150" y="41" type="curve" smooth="yes"/>
      <point x="150" y="29"/>
      <point x="154" y="19"/>
      <point x="163" y="11" type="curve"/>
      <point x="180" y="4"/>
      <point x="195" y="0"/>
    </contour>
    <contour>
      <point x="615" y="-354" type="curve" smooth="yes"/>
      <point x="658" y="-354"/>
      <point x="692" y="-320"/>
      <point x="692" y="-277" type="curve" smooth="yes"/>
      <point x="692" y="-234"/>
      <point x="658" y="-200"/>
      <point x="615" y="-200" type="curve" smooth="yes"/>
      <point x="572" y="-200"/>
      <point x="538" y="-234"/>
      <point x="538" y="-277" type="curve" smooth="yes"/>
      <point x="538" y="-320"/>
      <point x="572" y="-354"/>
    </contour>
    <contour>
      <point x="361" y="84" type="line"/>
      <point x="361" y="1086" type="line"/>
      <point x="666" y="1086" type="line" smooth="yes"/>
      <point x="771" y="1086"/>
      <point x="862" y="1041"/>
      <point x="939" y="950" type="curve" smooth="yes"/>
      <point x="1013" y="863"/>
      <point x="1050" y="767"/>
      <point x="1050" y="661" type="curve" smooth="yes"/>
      <point x="1050" y="509" type="line" smooth="yes"/>
      <point x="1050" y="404"/>
      <point x="1013" y="307"/>
      <point x="938" y="220" type="curve" smooth="yes"/>
      <point x="860" y="129"/>
      <point x="769" y="84"/>
      <point x="666" y="84" type="curve" smooth="yes"/>
    </contour>
  </outline>
</glyph>
<glyph name="U1e6e" format="2">
  <advance width="1241"/>
  <unicode hex="1E6E"/>
  <note>
U1e6e
</note>
  <outline>
    <contour>
      <point x="508" y="-2" type="curve" smooth="yes"/>
      <point x="734" y="-2" type="line" smooth="yes"/>
      <point x="771" y="-2"/>
      <point x="790" y="12"/>
      <point x="790" y="40" type="curve" smooth="yes"/>
      <point x="790" y="69"/>
      <point x="771" y="83"/>
      <point x="734" y="83" type="curve" smooth="yes"/>
      <point x="663" y="83" type="line"/>
      <point x="663" y="1085" type="line"/>
      <point x="1007" y="1085" type="line"/>
      <point x="1006" y="1014" type="line" smooth="yes"/>
      <point x="1005" y="977"/>
      <point x="1020" y="958"/>
      <point x="1049" y="958" type="curve" smooth="yes"/>
      <point x="1077" y="958"/>
      <point x="1091" y="977"/>
      <point x="1091" y="1014" type="curve" smooth="yes"/>
      <point x="1091" y="1169" type="line"/>
      <point x="150" y="1169" type="line"/>
      <point x="150" y="1014" type="line" smooth="yes"/>
      <point x="150" y="977"/>
      <point x="164" y="958"/>
      <point x="192" y="958" type="curve" smooth="yes"/>
      <point x="221" y="958"/>
      <point x="236" y="977"/>
      <point x="235" y="1014" type="curve" smooth="yes"/>
      <point x="234" y="1085" type="line"/>
      <point x="578" y="1085" type="line"/>
      <point x="579" y="83" type="line"/>
      <point x="508" y="83" type="line" smooth="yes"/>
      <point x="471" y="83"/>
      <point x="452" y="69"/>
      <point x="452" y="40" type="curve" smooth="yes"/>
      <point x="452" y="12"/>
      <point x="471" y="-2"/>
    </contour>
    <contour>
      <point x="389" y="-285" type="curve" smooth="yes"/>
      <point x="881" y="-285" type="line" smooth="yes"/>
      <point x="917" y="-285"/>
      <point x="935" y="-271"/>
      <point x="935" y="-243" type="curve" smooth="yes"/>
      <point x="935" y="-214"/>
      <point x="916" y="-200"/>
      <point x="879" y="-200" type="curve" smooth="yes"/>
      <point x="393" y="-200" type="line" smooth="yes"/>
      <point x="356" y="-200"/>
      <point x="337" y="-214"/>
      <point x="337" y="-243" type="curve" smooth="yes"/>
      <point x="337" y="-271"/>
      <point x="354" y="-285"/>
    </contour>
  </outline>
</glyph>
<glyph name="U1e6f" format="2">
  <advance width="1101"/>
  <unicode hex="1E6F"/>
  <note>
U1e6f
</note>
  <outline>
    <contour>
      <point x="708" y="-33" type="curve" smooth="yes"/>
      <point x="767" y="-33"/>
      <point x="829" y="-20"/>
      <point x="895" y="6" type="curve" smooth="yes"/>
      <point x="980" y="39"/>
      <point x="1023" y="72"/>
      <point x="1023" y="105" type="curve" smooth="yes"/>
      <point x="1023" y="133"/>
      <point x="1010" y="147"/>
      <point x="983" y="147" type="curve" smooth="yes"/>
      <point x="979" y="147"/>
      <point x="958" y="137"/>
      <point x="919" y="116" type="curve" smooth="yes"/>
      <point x="878" y="93"/>
      <point x="850" y="80"/>
      <point x="836" y="77" type="curve" smooth="yes"/>
      <point x="771" y="60"/>
      <point x="727" y="51"/>
      <point x="702" y="51" type="curve" smooth="yes"/>
      <point x="645" y="51"/>
      <point x="597" y="65"/>
      <point x="558" y="93" type="curve" smooth="yes"/>
      <point x="514" y="124"/>
      <point x="492" y="167"/>
      <point x="492" y="222" type="curve" smooth="yes"/>
      <point x="491" y="677" type="line"/>
      <point x="897" y="677" type="line" smooth="yes"/>
      <point x="934" y="677"/>
      <point x="953" y="691"/>
      <point x="953" y="719" type="curve" smooth="yes"/>
      <point x="953" y="748"/>
      <point x="934" y="762"/>
      <point x="897" y="762" type="curve" smooth="yes"/>
      <point x="491" y="762" type="line"/>
      <point x="492" y="1114" type="line" smooth="yes"/>
      <point x="492" y="1151"/>
      <point x="478" y="1170"/>
      <point x="449" y="1170" type="curve" smooth="yes"/>
      <point x="421" y="1170"/>
      <point x="407" y="1151"/>
      <point x="407" y="1114" type="curve" smooth="yes"/>
      <point x="406" y="762" type="line"/>
      <point x="201" y="762" type="line" smooth="yes"/>
      <point x="164" y="762"/>
      <point x="145" y="748"/>
      <point x="145" y="720" type="curve" smooth="yes"/>
      <point x="145" y="691"/>
      <point x="164" y="677"/>
      <point x="201" y="677" type="curve" smooth="yes"/>
      <point x="406" y="677" type="line"/>
      <point x="407" y="222" type="line" smooth="yes"/>
      <point x="407" y="141"/>
      <point x="438" y="78"/>
      <point x="499" y="31" type="curve" smooth="yes"/>
      <point x="555" y="-12"/>
      <point x="625" y="-33"/>
    </contour>
    <contour>
      <point x="349" y="-285" type="curve" smooth="yes"/>
      <point x="841" y="-285" type="line" smooth="yes"/>
      <point x="877" y="-285"/>
      <point x="895" y="-271"/>
      <point x="895" y="-243" type="curve" smooth="yes"/>
      <point x="895" y="-214"/>
      <point x="876" y="-200"/>
      <point x="839" y="-200" type="curve" smooth="yes"/>
      <point x="353" y="-200" type="line" smooth="yes"/>
      <point x="316" y="-200"/>
      <point x="297" y="-214"/>
      <point x="297" y="-243" type="curve" smooth="yes"/>
      <point x="297" y="-271"/>
      <point x="314" y="-285"/>
    </contour>
  </outline>
</glyph>
<glyph name="Amacron" format="2">
  <advance width="1504"/>
  <note>
Amacron
</note>
  <outline>
    <contour>
      <point x="206" y="3" type="curve" smooth="yes"/>
      <point x="432" y="3" type="line" smooth="yes"/>
      <point x="469" y="3"/>
      <point x="488" y="17"/>
      <point x="488" y="45" type="curve" smooth="yes"/>
      <point x="488" y="74"/>
      <point x="469" y="88"/>
      <point x="432" y="88" type="curve" smooth="yes"/>
      <point x="371" y="88" type="line"/>
      <point x="478" y="395" type="line"/>
      <point x="1030" y="395" type="line"/>
      <point x="1145" y="88" type="line"/>
      <point x="1074" y="88" type="line" smooth="yes"/>
      <point x="1037" y="88"/>
      <point x="1018" y="74"/>
      <point x="1018" y="45" type="curve" smooth="yes"/>
      <point x="1018" y="17"/>
      <point x="1037" y="3"/>
      <point x="1074" y="3" type="curve" smooth="yes"/>
      <point x="1300" y="3" type="line" smooth="yes"/>
      <point x="1337" y="3"/>
      <point x="1356" y="17"/>
      <point x="1356" y="45" type="curve" smooth="yes"/>
      <point x="1356" y="74"/>
      <point x="1337" y="88"/>
      <point x="1300" y="88" type="curve" smooth="yes"/>
      <point x="1229" y="88" type="line"/>
      <point x="823" y="1174" type="line"/>
      <point x="683" y="1175" type="line"/>
      <point x="277" y="88" type="line"/>
      <point x="206" y="88" type="line" smooth="yes"/>
      <point x="169" y="88"/>
      <point x="150" y="74"/>
      <point x="150" y="45" type="curve" smooth="yes"/>
      <point x="150" y="17"/>
      <point x="169" y="3"/>
    </contour>
    <contour>
      <point x="510" y="479" type="line"/>
      <point x="735" y="1090" type="line"/>
      <point x="766" y="1090" type="line"/>
      <point x="998" y="479" type="line"/>
    </contour>
    <contour>
      <point x="495" y="1274" type="curve" smooth="yes"/>
      <point x="973" y="1274" type="line" smooth="yes"/>
      <point x="1008" y="1274"/>
      <point x="1026" y="1288"/>
      <point x="1026" y="1316" type="curve" smooth="yes"/>
      <point x="1026" y="1345"/>
      <point x="1008" y="1359"/>
      <point x="973" y="1359" type="curve" smooth="yes"/>
      <point x="495" y="1359" type="line" smooth="yes"/>
      <point x="460" y="1359"/>
      <point x="443" y="1345"/>
      <point x="443" y="1317" type="curve" smooth="yes"/>
      <point x="443" y="1288"/>
      <point x="460" y="1274"/>
    </contour>
  </outline>
</glyph>
